%TF.GenerationSoftware,KiCad,Pcbnew,7.0.1*%
%TF.CreationDate,2023-07-22T19:51:59+09:00*%
%TF.ProjectId,gaming-clock,67616d69-6e67-42d6-936c-6f636b2e6b69,rev?*%
%TF.SameCoordinates,Original*%
%TF.FileFunction,Soldermask,Bot*%
%TF.FilePolarity,Negative*%
%FSLAX46Y46*%
G04 Gerber Fmt 4.6, Leading zero omitted, Abs format (unit mm)*
G04 Created by KiCad (PCBNEW 7.0.1) date 2023-07-22 19:51:59*
%MOMM*%
%LPD*%
G01*
G04 APERTURE LIST*
%ADD10C,0.600000*%
%ADD11C,0.100000*%
%ADD12O,1.000000X1.800000*%
%ADD13O,1.000000X2.100000*%
%ADD14C,0.650000*%
%ADD15R,1.800000X1.800000*%
%ADD16C,1.800000*%
%ADD17R,2.000000X2.000000*%
%ADD18C,2.000000*%
%ADD19O,2.200000X1.700000*%
%ADD20O,1.700000X2.200000*%
%ADD21R,0.900000X1.500000*%
%ADD22R,0.700000X0.700000*%
G04 APERTURE END LIST*
D10*
%TO.C,REF\u002A\u002A*%
X166878000Y-116967000D03*
D11*
X167767000Y-116967000D03*
D10*
X168656000Y-116967000D03*
X169545000Y-116967000D03*
X170434000Y-116967000D03*
X171323000Y-116967000D03*
X172212000Y-116967000D03*
X173101000Y-116967000D03*
X173944000Y-116967000D03*
X174752000Y-116967000D03*
%TD*%
D12*
%TO.C,J1*%
X166495000Y-119321000D03*
D13*
X166495000Y-123521000D03*
X175135000Y-123521000D03*
D12*
X175135000Y-119321000D03*
D14*
X167925000Y-123001000D03*
X173705000Y-123001000D03*
%TD*%
D15*
%TO.C,Q1*%
X110236000Y-76454000D03*
D16*
X107696000Y-76454000D03*
%TD*%
D17*
%TO.C,LS101*%
X181229000Y-104775000D03*
D18*
X176229000Y-104775000D03*
%TD*%
D19*
%TO.C,J2*%
X175439500Y-96076000D03*
D20*
X172839500Y-93276000D03*
X177739500Y-93276000D03*
%TD*%
D21*
%TO.C,U1*%
X181462000Y-89268000D03*
X179962000Y-89268000D03*
X178462000Y-89268000D03*
X176962000Y-89268000D03*
X175462000Y-89268000D03*
X173962000Y-89268000D03*
X172462000Y-89268000D03*
X170962000Y-89268000D03*
X169462000Y-89268000D03*
X169462000Y-71768000D03*
X170962000Y-71768000D03*
X172462000Y-71768000D03*
X173962000Y-71768000D03*
X175462000Y-71768000D03*
X176962000Y-71768000D03*
X178462000Y-71768000D03*
X179962000Y-71768000D03*
X181462000Y-71768000D03*
D22*
X174162000Y-80658000D03*
X175262000Y-80658000D03*
X176362000Y-80658000D03*
X174162000Y-79608000D03*
X175262000Y-79608000D03*
X176362000Y-79608000D03*
X174162000Y-78458000D03*
X175262000Y-78458000D03*
X176362000Y-78458000D03*
%TD*%
G36*
X177738000Y-125365613D02*
G01*
X177783387Y-125411000D01*
X177800000Y-125473000D01*
X177800000Y-127384000D01*
X177783387Y-127446000D01*
X177738000Y-127491387D01*
X177676000Y-127508000D01*
X175384000Y-127508000D01*
X175322000Y-127491387D01*
X175276613Y-127446000D01*
X175260000Y-127384000D01*
X175260000Y-126492000D01*
X173990000Y-126492000D01*
X173990000Y-127384000D01*
X173973387Y-127446000D01*
X173928000Y-127491387D01*
X173866000Y-127508000D01*
X167764000Y-127508000D01*
X167702000Y-127491387D01*
X167656613Y-127446000D01*
X167640000Y-127384000D01*
X167640000Y-126492000D01*
X166370000Y-126492000D01*
X166370000Y-127384000D01*
X166353387Y-127446000D01*
X166308000Y-127491387D01*
X166246000Y-127508000D01*
X163954000Y-127508000D01*
X163892000Y-127491387D01*
X163846613Y-127446000D01*
X163830000Y-127384000D01*
X163830000Y-125473000D01*
X163846613Y-125411000D01*
X163892000Y-125365613D01*
X163954000Y-125349000D01*
X177676000Y-125349000D01*
X177738000Y-125365613D01*
G37*
G36*
X166308000Y-96917613D02*
G01*
X166353387Y-96963000D01*
X166370000Y-97025000D01*
X166370000Y-99698000D01*
X166353387Y-99760000D01*
X166308000Y-99805387D01*
X166246000Y-99822000D01*
X150492000Y-99822000D01*
X150430000Y-99805387D01*
X150384613Y-99760000D01*
X150368000Y-99698000D01*
X150368000Y-97790000D01*
X151257000Y-97790000D01*
X151257000Y-98933000D01*
X154051000Y-98933000D01*
X154051000Y-97790000D01*
X155067000Y-97790000D01*
X155067000Y-98933000D01*
X161671000Y-98933000D01*
X161671000Y-97790000D01*
X162687000Y-97790000D01*
X162687000Y-98933000D01*
X165481000Y-98933000D01*
X165481000Y-97790000D01*
X162687000Y-97790000D01*
X161671000Y-97790000D01*
X155067000Y-97790000D01*
X154051000Y-97790000D01*
X151257000Y-97790000D01*
X150368000Y-97790000D01*
X150368000Y-97025000D01*
X150384613Y-96963000D01*
X150430000Y-96917613D01*
X150492000Y-96901000D01*
X166246000Y-96901000D01*
X166308000Y-96917613D01*
G37*
M02*
