M48
; DRILL file {KiCad 7.0.1} date Sat Jul 22 19:52:03 2023
; FORMAT={-:-/ absolute / inch / decimal}
; #@! TF.CreationDate,2023-07-22T19:52:03+09:00
; #@! TF.GenerationSoftware,Kicad,Pcbnew,7.0.1
; #@! TF.FileFunction,Plated,1,2,PTH
FMAT,2
INCH
; #@! TA.AperFunction,Plated,PTH,ViaDrill
T1C0.0157
; #@! TA.AperFunction,Plated,PTH,ComponentDrill
T2C0.0236
; #@! TA.AperFunction,Plated,PTH,ComponentDrill
T3C0.0354
; #@! TA.AperFunction,Plated,PTH,ComponentDrill
T4C0.0394
%
G90
G05
T1
X2.735Y-3.89
X2.77Y-2.695
X2.77Y-4.23
X2.775Y-3.005
X2.775Y-4.38
X2.78Y-3.165
X2.8Y-4.7
X2.845Y-3.48
X2.995Y-3.805
X3.025Y-2.6
X3.075Y-4.985
X3.275Y-4.89
X3.28Y-3.695
X3.285Y-2.5
X3.435Y-2.49
X3.435Y-3.69
X3.435Y-4.89
X3.74Y-3.575
X3.765Y-4.865
X3.785Y-2.54
X3.84Y-2.76
X3.87Y-3.685
X3.94Y-4.23
X3.94Y-4.375
X3.945Y-3.01
X3.95Y-3.175
X3.985Y-3.855
X4.05Y-4.615
X4.115Y-3.83
X4.135Y-2.945
X4.215Y-3.51
X4.34Y-3.75
X4.46Y-2.93
X4.475Y-3.09
X4.51Y-4.31
X4.535Y-3.985
X4.635Y-2.695
X4.64Y-4.39
X4.645Y-3.0
X4.645Y-4.22
X4.65Y-3.165
X4.675Y-4.705
X4.725Y-3.65
X4.745Y-3.39
X4.78Y-3.57
X4.8Y-3.76
X4.985Y-2.6
X4.985Y-4.99
X5.145Y-3.69
X5.145Y-4.89
X5.15Y-2.5
X5.3Y-3.695
X5.3Y-4.885
X5.31Y-2.495
X5.625Y-3.62
X5.64Y-4.86
X5.65Y-2.535
X5.71Y-2.825
X5.79Y-3.67
X5.805Y-3.01
X5.81Y-4.215
X5.815Y-3.17
X5.825Y-4.39
X5.885Y-3.77
X5.905Y-4.615
X5.935Y-4.035
X5.985Y-2.82
X6.04Y-3.57
X6.055Y-4.61
X6.105Y-2.825
X6.125Y-3.815
X6.175Y-4.125
X6.175Y-4.305
X6.205Y-3.815
X6.225Y-3.325
X6.235Y-3.65
X6.265Y-3.815
X6.345Y-3.815
X6.375Y-3.65
X6.375Y-3.69
X6.375Y-3.785
X6.475Y-3.33
X6.48Y-4.79
X6.495Y-3.505
X6.5Y-4.975
X6.535Y-4.08
X6.59Y-3.83
X6.6Y-4.22
X6.675Y-4.83
X6.725Y-4.485
X6.73Y-3.785
X6.76Y-4.83
X6.765Y-4.18
X6.79Y-4.035
X6.875Y-3.33
X6.95Y-3.44
X6.95Y-3.6
X6.95Y-4.98
X6.965Y-2.825
X6.965Y-4.79
X6.98Y-3.84
X7.055Y-3.39
X7.085Y-2.99
X7.085Y-3.515
X7.139Y-3.569
X7.145Y-2.895
X7.145Y-3.45
X7.27Y-4.005
X7.38Y-3.675
X7.425Y-4.165
X7.475Y-4.355
X7.48Y-3.08
X7.525Y-3.47
X7.575Y-3.545
X7.6Y-2.665
X7.63Y-3.0
X7.63Y-4.22
X7.635Y-3.16
X7.64Y-4.375
X7.66Y-3.74
X7.735Y-4.555
X7.8Y-2.53
X7.815Y-4.865
X7.975Y-3.81
X8.14Y-2.475
X8.145Y-3.695
X8.145Y-4.89
X8.305Y-4.89
X8.31Y-2.47
X8.32Y-3.7
X8.53Y-4.775
X8.625Y-2.465
X8.625Y-3.67
X8.715Y-3.54
X8.775Y-2.655
X8.775Y-3.9
X8.8Y-4.22
X8.805Y-2.99
X8.805Y-4.375
X8.81Y-3.155
X8.815Y-4.69
X8.945Y-3.075
X8.975Y-3.515
X9.285Y-3.705
X9.3075Y-3.4575
X9.375Y-3.085
X9.415Y-3.535
X9.47Y-2.67
X9.5Y-4.38
X9.505Y-3.005
X9.505Y-3.155
X9.505Y-4.23
X9.535Y-3.745
X9.62Y-4.615
X9.665Y-2.54
X9.665Y-4.85
X9.84Y-3.81
X10.02Y-4.885
X10.025Y-2.495
X10.025Y-3.69
X10.155Y-4.89
X10.17Y-2.49
X10.17Y-3.69
X10.395Y-4.78
X10.47Y-3.575
X10.495Y-2.465
X10.585Y-4.79
X10.64Y-2.66
X10.67Y-2.995
X10.67Y-3.155
X10.67Y-4.225
X10.67Y-4.385
X10.73Y-3.495
T3
X4.24Y-3.01
X4.34Y-3.01
T4
X6.9381Y-4.125
X7.135Y-4.125
T2
G00X6.5549Y-4.7134
M15
G01X6.5549Y-4.6819
M16
G05
G00X6.5549Y-4.8847
M15
G01X6.5549Y-4.8414
M16
G05
G00X6.8951Y-4.7134
M15
G01X6.8951Y-4.6819
M16
G05
G00X6.8951Y-4.8847
M15
G01X6.8951Y-4.8414
M16
G05
T4
G00X6.8047Y-3.6821
M15
G01X6.8047Y-3.6624
M16
G05
G00X6.8972Y-3.7825
M15
G01X6.9169Y-3.7825
M16
G05
G00X6.9976Y-3.6821
M15
G01X6.9976Y-3.6624
M16
G05
T0
M30
