%TF.GenerationSoftware,KiCad,Pcbnew,7.0.1*%
%TF.CreationDate,2023-07-22T19:51:59+09:00*%
%TF.ProjectId,gaming-clock,67616d69-6e67-42d6-936c-6f636b2e6b69,rev?*%
%TF.SameCoordinates,Original*%
%TF.FileFunction,Copper,L2,Bot*%
%TF.FilePolarity,Positive*%
%FSLAX46Y46*%
G04 Gerber Fmt 4.6, Leading zero omitted, Abs format (unit mm)*
G04 Created by KiCad (PCBNEW 7.0.1) date 2023-07-22 19:51:59*
%MOMM*%
%LPD*%
G01*
G04 APERTURE LIST*
%TA.AperFunction,ComponentPad*%
%ADD10O,1.000000X1.800000*%
%TD*%
%TA.AperFunction,ComponentPad*%
%ADD11O,1.000000X2.100000*%
%TD*%
%TA.AperFunction,ComponentPad*%
%ADD12R,1.800000X1.800000*%
%TD*%
%TA.AperFunction,ComponentPad*%
%ADD13C,1.800000*%
%TD*%
%TA.AperFunction,ComponentPad*%
%ADD14R,2.000000X2.000000*%
%TD*%
%TA.AperFunction,ComponentPad*%
%ADD15C,2.000000*%
%TD*%
%TA.AperFunction,ComponentPad*%
%ADD16O,2.200000X1.700000*%
%TD*%
%TA.AperFunction,ComponentPad*%
%ADD17O,1.700000X2.200000*%
%TD*%
%TA.AperFunction,SMDPad,CuDef*%
%ADD18R,0.900000X1.500000*%
%TD*%
%TA.AperFunction,SMDPad,CuDef*%
%ADD19R,0.700000X0.700000*%
%TD*%
%TA.AperFunction,ViaPad*%
%ADD20C,0.800000*%
%TD*%
%TA.AperFunction,Conductor*%
%ADD21C,0.200000*%
%TD*%
%TA.AperFunction,Conductor*%
%ADD22C,0.500000*%
%TD*%
%TA.AperFunction,Conductor*%
%ADD23C,0.250000*%
%TD*%
%TA.AperFunction,Conductor*%
%ADD24C,0.750000*%
%TD*%
G04 APERTURE END LIST*
D10*
%TO.P,J1,S1,SHIELD*%
%TO.N,GND*%
X166495000Y-119321000D03*
D11*
X166495000Y-123521000D03*
X175135000Y-123521000D03*
D10*
X175135000Y-119321000D03*
%TD*%
D12*
%TO.P,Q1,1,C*%
%TO.N,+5V*%
X110236000Y-76454000D03*
D13*
%TO.P,Q1,2,E*%
%TO.N,LS*%
X107696000Y-76454000D03*
%TD*%
D14*
%TO.P,LS101,1,1*%
%TO.N,SPEAK*%
X181229000Y-104775000D03*
D15*
%TO.P,LS101,2,2*%
%TO.N,GND*%
X176229000Y-104775000D03*
%TD*%
D16*
%TO.P,J2,1*%
%TO.N,DC5V*%
X175439500Y-96076000D03*
D17*
X172839500Y-93276000D03*
%TO.P,J2,2*%
%TO.N,GND*%
X177739500Y-93276000D03*
%TD*%
D18*
%TO.P,U1,1,3V3*%
%TO.N,+3.3V*%
X181462000Y-89268000D03*
%TO.P,U1,2,EN/CHIP_PU*%
%TO.N,Net-(U1-EN{slash}CHIP_PU)*%
X179962000Y-89268000D03*
%TO.P,U1,3,GPIO4/ADC1_CH4*%
%TO.N,/Sheetname: 7-Segment-ARGB1/DIN*%
X178462000Y-89268000D03*
%TO.P,U1,4,GPIO5/ADC2_CH0*%
%TO.N,/Sheetname: 7-Segment-ARGB/DIN*%
X176962000Y-89268000D03*
%TO.P,U1,5,GPIO6*%
%TO.N,/Sheetname: 7-Segment-ARGB2/DIN*%
X175462000Y-89268000D03*
%TO.P,U1,6,GPIO7*%
%TO.N,/Sheetname: 7-Segment-ARGB3/DIN*%
X173962000Y-89268000D03*
%TO.P,U1,7,GPIO8*%
%TO.N,GPIO8*%
X172462000Y-89268000D03*
%TO.P,U1,8,GPIO9*%
%TO.N,GPIO9*%
X170962000Y-89268000D03*
%TO.P,U1,9,GND*%
%TO.N,GND*%
X169462000Y-89268000D03*
%TO.P,U1,10,GPIO10*%
%TO.N,unconnected-(U1-GPIO10-Pad10)*%
X169462000Y-71768000D03*
%TO.P,U1,11,GPIO20/U0RXD*%
%TO.N,unconnected-(U1-GPIO20{slash}U0RXD-Pad11)*%
X170962000Y-71768000D03*
%TO.P,U1,12,GPIO21/U0TXD*%
%TO.N,unconnected-(U1-GPIO21{slash}U0TXD-Pad12)*%
X172462000Y-71768000D03*
%TO.P,U1,13,GPIO18/USB_D-*%
%TO.N,D-*%
X173962000Y-71768000D03*
%TO.P,U1,14,GPIO19/USB_D+*%
%TO.N,D+*%
X175462000Y-71768000D03*
%TO.P,U1,15,GPIO3/ADC1_CH3*%
%TO.N,LS*%
X176962000Y-71768000D03*
%TO.P,U1,16,GPIO2/ADC1_CH2*%
%TO.N,SIN*%
X178462000Y-71768000D03*
%TO.P,U1,17,GPIO1/ADC1_CH1/XTAL_32K_N*%
%TO.N,unconnected-(U1-GPIO1{slash}ADC1_CH1{slash}XTAL_32K_N-Pad17)*%
X179962000Y-71768000D03*
%TO.P,U1,18,GPIO0/ADC1_CH0/XTAL_32K_P*%
%TO.N,SPEAK*%
X181462000Y-71768000D03*
D19*
%TO.P,U1,19,GND*%
%TO.N,GND*%
X174162000Y-80658000D03*
X175262000Y-80658000D03*
X176362000Y-80658000D03*
X174162000Y-79608000D03*
X175262000Y-79608000D03*
X176362000Y-79608000D03*
X174162000Y-78458000D03*
X175262000Y-78458000D03*
X176362000Y-78458000D03*
%TD*%
D20*
%TO.N,GND*%
X117729000Y-68453000D03*
X143510000Y-64389000D03*
X96139000Y-64516000D03*
X70358000Y-68453000D03*
X71120000Y-119380000D03*
X95631000Y-123571000D03*
X118745000Y-119507000D03*
X143256000Y-123444000D03*
X171831000Y-106172000D03*
X198501000Y-123571000D03*
X223901000Y-119126000D03*
X245491000Y-123190000D03*
X268859000Y-121666000D03*
X270256000Y-67564000D03*
X245491000Y-64516000D03*
X222885000Y-67437000D03*
X198120000Y-64262000D03*
X110236000Y-95250000D03*
X101219000Y-97917000D03*
X98298000Y-93599000D03*
X121920000Y-95504000D03*
X219075000Y-93218000D03*
X227965000Y-89281000D03*
X242189000Y-95123000D03*
X221361000Y-89916000D03*
X194564000Y-94996000D03*
X147066000Y-93218000D03*
X158369000Y-92710000D03*
X153416000Y-90678000D03*
%TO.N,USB5V*%
X161925000Y-96139000D03*
%TO.N,D+*%
X159131000Y-96901000D03*
%TO.N,D-*%
X157607000Y-96901000D03*
%TO.N,USB5V*%
X161925000Y-93726000D03*
X161925000Y-92710000D03*
X155575000Y-96901000D03*
X161163000Y-96901000D03*
%TO.N,GND*%
X176530000Y-126492000D03*
X165100000Y-126365000D03*
%TO.N,Net-(J1-CC1)*%
X171704000Y-122682000D03*
%TO.N,Net-(J1-CC2)*%
X169545000Y-122682000D03*
X164592000Y-121666000D03*
%TO.N,Net-(J1-CC1)*%
X176911000Y-121666000D03*
%TO.N,GND*%
X117983000Y-107188000D03*
X167386000Y-97282000D03*
X188595000Y-105791000D03*
X193802000Y-107188000D03*
X239141000Y-89789000D03*
X87249000Y-63246000D03*
X114554000Y-109474000D03*
X223647000Y-75946000D03*
X78105000Y-126619000D03*
X196469000Y-115697000D03*
X271018000Y-80137000D03*
X254635000Y-63373000D03*
X219075000Y-62611000D03*
X130683000Y-93726000D03*
X100076000Y-111125000D03*
X192405000Y-90043000D03*
X156845000Y-109347000D03*
X184658000Y-101727000D03*
X120015000Y-92710000D03*
X202565000Y-96774000D03*
X70358000Y-107442000D03*
X113665000Y-78486000D03*
X130810000Y-63500000D03*
X238125000Y-78359000D03*
X158115000Y-84455000D03*
X147447000Y-76454000D03*
X265938000Y-90805000D03*
X113284000Y-74422000D03*
X258318000Y-63246000D03*
X206756000Y-62865000D03*
X72263000Y-88392000D03*
X97536000Y-70104000D03*
X149987000Y-117221000D03*
X149479000Y-95758000D03*
X223520000Y-107188000D03*
X156845000Y-104775000D03*
X126619000Y-66040000D03*
X76835000Y-66040000D03*
X241427000Y-107442000D03*
X257937000Y-124206000D03*
X120523000Y-86106000D03*
X83439000Y-63500000D03*
X117856000Y-111506000D03*
X115189000Y-101219000D03*
X187452000Y-93345000D03*
X241427000Y-76327000D03*
X76073000Y-96647000D03*
X211328000Y-93980000D03*
X69469000Y-98806000D03*
X241427000Y-80137000D03*
X134620000Y-93853000D03*
X271018000Y-76073000D03*
X130683000Y-124206000D03*
X100203000Y-76454000D03*
X134874000Y-63373000D03*
X105029000Y-74803000D03*
X70612000Y-80391000D03*
X100076000Y-107442000D03*
X235839000Y-94107000D03*
X117983000Y-76200000D03*
X134620000Y-124079000D03*
X271018000Y-107315000D03*
X222885000Y-99060000D03*
X264033000Y-121412000D03*
X87249000Y-93726000D03*
X193802000Y-76200000D03*
X83185000Y-124206000D03*
X254508000Y-124079000D03*
X216662000Y-121285000D03*
X176530000Y-87376000D03*
X227203000Y-78105000D03*
X167640000Y-107188000D03*
X70485000Y-76327000D03*
X83312000Y-93853000D03*
X272542000Y-88773000D03*
X206883000Y-124206000D03*
X87249000Y-124206000D03*
X271018000Y-111379000D03*
X240538000Y-67818000D03*
X223774000Y-80137000D03*
X147955000Y-111506000D03*
X210947000Y-124206000D03*
X189865000Y-110617000D03*
X70485000Y-111252000D03*
X211074000Y-62738000D03*
X194056000Y-111125000D03*
X206883000Y-93853000D03*
X223647000Y-111125000D03*
X152019000Y-71628000D03*
X266573000Y-62611000D03*
X94996000Y-90805000D03*
X145034000Y-71755000D03*
X100330000Y-80645000D03*
X258318000Y-93726000D03*
X249936000Y-96774000D03*
X147701000Y-80518000D03*
X107061000Y-89154000D03*
X102870000Y-117221000D03*
X193929000Y-80264000D03*
X153797000Y-117094000D03*
X254635000Y-93726000D03*
X170815000Y-113919000D03*
X244348000Y-117221000D03*
X142875000Y-91948000D03*
X118110000Y-80391000D03*
X189992000Y-78232000D03*
X147574000Y-107061000D03*
X126619000Y-126746000D03*
X164465000Y-84582000D03*
X241300000Y-111252000D03*
X164973000Y-89027000D03*
X174625000Y-84582000D03*
X193040000Y-67691000D03*
%TO.N,+3.3V*%
X181329500Y-90651500D03*
X181483000Y-87630000D03*
%TO.N,Net-(D1-DOUT)*%
X172466000Y-102489000D03*
X177292000Y-97536000D03*
%TO.N,SIN*%
X179959000Y-75946000D03*
%TO.N,/Sheetname: 7-Segment-ARGB/DIN*%
X236410500Y-87820500D03*
%TO.N,/Sheetname: 7-Segment-ARGB1/DIN*%
X191135000Y-88138000D03*
%TO.N,/Sheetname: 7-Segment-ARGB2/DIN*%
X150749000Y-102489000D03*
%TO.N,/Sheetname: 7-Segment-ARGB3/DIN*%
X104521000Y-97282000D03*
%TO.N,LS*%
X121412000Y-90678000D03*
X176911000Y-71755000D03*
X155067000Y-71755000D03*
%TO.N,Net-(U1-EN{slash}CHIP_PU)*%
X176530000Y-91440000D03*
X165989000Y-103632000D03*
X179959000Y-89281000D03*
%TO.N,SPEAK*%
X181483000Y-73533000D03*
%TO.N,GPIO8*%
X179197000Y-86106000D03*
%TO.N,GPIO9*%
X170942000Y-96139000D03*
%TD*%
D21*
%TO.N,D-*%
X157607000Y-89884364D02*
X173962000Y-73529364D01*
X173962000Y-73529364D02*
X173962000Y-71768000D01*
X157607000Y-96901000D02*
X157607000Y-89884364D01*
%TO.N,D+*%
X175462000Y-72595050D02*
X175462000Y-71768000D01*
X159131000Y-88926050D02*
X175462000Y-72595050D01*
X159131000Y-96901000D02*
X159131000Y-88926050D01*
D22*
%TO.N,USB5V*%
X161925000Y-96139000D02*
X161925000Y-92710000D01*
D23*
%TO.N,Net-(J1-CC2)*%
X168529000Y-121666000D02*
X164592000Y-121666000D01*
X169545000Y-122682000D02*
X168529000Y-121666000D01*
%TO.N,Net-(J1-CC1)*%
X171704000Y-122682000D02*
X172720000Y-121666000D01*
X172720000Y-121666000D02*
X176911000Y-121666000D01*
D24*
%TO.N,+3.3V*%
X181483000Y-89247000D02*
X181462000Y-89268000D01*
X181483000Y-87630000D02*
X181483000Y-89247000D01*
X181329500Y-89400500D02*
X181462000Y-89268000D01*
X181329500Y-90651500D02*
X181329500Y-89400500D01*
D23*
%TO.N,Net-(D1-DOUT)*%
X177292000Y-98552000D02*
X173355000Y-102489000D01*
X173355000Y-102489000D02*
X172466000Y-102489000D01*
X177292000Y-97536000D02*
X177292000Y-98552000D01*
%TO.N,SIN*%
X178462000Y-74449000D02*
X179959000Y-75946000D01*
X178462000Y-71768000D02*
X178462000Y-74449000D01*
%TO.N,/Sheetname: 7-Segment-ARGB/DIN*%
X176962000Y-89268000D02*
X176962000Y-89568000D01*
X179220500Y-91826500D02*
X232404500Y-91826500D01*
X176962000Y-89568000D02*
X179220500Y-91826500D01*
X232404500Y-91826500D02*
X236410500Y-87820500D01*
%TO.N,/Sheetname: 7-Segment-ARGB1/DIN*%
X187896500Y-91376500D02*
X191135000Y-88138000D01*
X180270500Y-91376500D02*
X187896500Y-91376500D01*
X178462000Y-89268000D02*
X178462000Y-89568000D01*
X178462000Y-89568000D02*
X180270500Y-91376500D01*
%TO.N,/Sheetname: 7-Segment-ARGB2/DIN*%
X166371396Y-102489000D02*
X150749000Y-102489000D01*
X175462000Y-89268000D02*
X175462000Y-93398396D01*
X175462000Y-93398396D02*
X166371396Y-102489000D01*
%TO.N,/Sheetname: 7-Segment-ARGB3/DIN*%
X173962000Y-89268000D02*
X174014500Y-89320500D01*
X174014500Y-94209500D02*
X166185000Y-102039000D01*
X147066000Y-97282000D02*
X104521000Y-97282000D01*
X166185000Y-102039000D02*
X151823000Y-102039000D01*
X174014500Y-89320500D02*
X174014500Y-94209500D01*
X151823000Y-102039000D02*
X147066000Y-97282000D01*
%TO.N,LS*%
X151003000Y-75819000D02*
X155067000Y-71755000D01*
X121412000Y-90678000D02*
X145796000Y-90678000D01*
X151003000Y-85471000D02*
X151003000Y-75819000D01*
X145796000Y-90678000D02*
X151003000Y-85471000D01*
%TO.N,Net-(U1-EN{slash}CHIP_PU)*%
X165989000Y-103632000D02*
X165989000Y-103614799D01*
X176530000Y-93073799D02*
X176530000Y-91440000D01*
X165989000Y-103614799D02*
X176530000Y-93073799D01*
%TO.N,SPEAK*%
X181462000Y-73512000D02*
X181483000Y-73533000D01*
X181462000Y-71768000D02*
X181462000Y-73512000D01*
%TO.N,GPIO8*%
X179070000Y-85979000D02*
X179197000Y-86106000D01*
X175451000Y-85979000D02*
X179070000Y-85979000D01*
X172462000Y-88968000D02*
X175451000Y-85979000D01*
X172462000Y-89268000D02*
X172462000Y-88968000D01*
%TO.N,GPIO9*%
X170942000Y-96139000D02*
X170962000Y-96119000D01*
X170962000Y-96119000D02*
X170962000Y-89268000D01*
%TD*%
%TA.AperFunction,Conductor*%
%TO.N,GND*%
G36*
X94737883Y-59953939D02*
G01*
X94778111Y-59980819D01*
X103595181Y-68797888D01*
X103622061Y-68838116D01*
X103631500Y-68885569D01*
X103631500Y-73000240D01*
X103631459Y-73000446D01*
X103631459Y-73025000D01*
X103631500Y-73025099D01*
X103631617Y-73025383D01*
X103631618Y-73025384D01*
X103631808Y-73025462D01*
X103632000Y-73025541D01*
X103632002Y-73025539D01*
X103656616Y-73025524D01*
X103656616Y-73025528D01*
X103656760Y-73025500D01*
X114529240Y-73025500D01*
X114529383Y-73025528D01*
X114529384Y-73025524D01*
X114553997Y-73025539D01*
X114554000Y-73025541D01*
X114554383Y-73025383D01*
X114554500Y-73025099D01*
X114554541Y-73025000D01*
X114554541Y-73000446D01*
X114554500Y-73000240D01*
X114554500Y-68885570D01*
X114563939Y-68838117D01*
X114590819Y-68797889D01*
X123407888Y-59980819D01*
X123448116Y-59953939D01*
X123495569Y-59944500D01*
X142188430Y-59944500D01*
X142235883Y-59953939D01*
X142276111Y-59980819D01*
X151093181Y-68797888D01*
X151120061Y-68838116D01*
X151129500Y-68885569D01*
X151129500Y-70333240D01*
X151129459Y-70333446D01*
X151129459Y-70358000D01*
X151129500Y-70358099D01*
X151129617Y-70358383D01*
X151129618Y-70358384D01*
X151129808Y-70358461D01*
X151130000Y-70358541D01*
X151130002Y-70358539D01*
X151154616Y-70358524D01*
X151154616Y-70358528D01*
X151154760Y-70358500D01*
X168685256Y-70358500D01*
X168744683Y-70373668D01*
X168789571Y-70415460D01*
X168808940Y-70473654D01*
X168798050Y-70534011D01*
X168759568Y-70581765D01*
X168654453Y-70660454D01*
X168654454Y-70660454D01*
X168568204Y-70775668D01*
X168517909Y-70910516D01*
X168511500Y-70970130D01*
X168511500Y-72565869D01*
X168517909Y-72625484D01*
X168532625Y-72664939D01*
X168568204Y-72760331D01*
X168654454Y-72875546D01*
X168769669Y-72961796D01*
X168904517Y-73012091D01*
X168964127Y-73018500D01*
X169959872Y-73018499D01*
X170019483Y-73012091D01*
X170154331Y-72961796D01*
X170154335Y-72961792D01*
X170168665Y-72956448D01*
X170211999Y-72948630D01*
X170255333Y-72956448D01*
X170269666Y-72961794D01*
X170269669Y-72961796D01*
X170404517Y-73012091D01*
X170464127Y-73018500D01*
X171459872Y-73018499D01*
X171519483Y-73012091D01*
X171654331Y-72961796D01*
X171654335Y-72961792D01*
X171668665Y-72956448D01*
X171711999Y-72948630D01*
X171755333Y-72956448D01*
X171769666Y-72961794D01*
X171769669Y-72961796D01*
X171904517Y-73012091D01*
X171964127Y-73018500D01*
X172959872Y-73018499D01*
X173019483Y-73012091D01*
X173154331Y-72961796D01*
X173154335Y-72961792D01*
X173168665Y-72956448D01*
X173212000Y-72948630D01*
X173255335Y-72956449D01*
X173269668Y-72961795D01*
X173269669Y-72961796D01*
X173280836Y-72965961D01*
X173323071Y-72992400D01*
X173351489Y-73033330D01*
X173361500Y-73082142D01*
X173361500Y-73229267D01*
X173352061Y-73276720D01*
X173325181Y-73316948D01*
X157215965Y-89426162D01*
X157203773Y-89436855D01*
X157178717Y-89456081D01*
X157106120Y-89550694D01*
X157106118Y-89550695D01*
X157082463Y-89581523D01*
X157021956Y-89727601D01*
X157001317Y-89884363D01*
X157005439Y-89915665D01*
X157006500Y-89931851D01*
X157006500Y-96174547D01*
X156998264Y-96218985D01*
X156974650Y-96257519D01*
X156874466Y-96368783D01*
X156833277Y-96440126D01*
X156783146Y-96488116D01*
X156715082Y-96501654D01*
X156670555Y-96484338D01*
X156669833Y-96486084D01*
X156532838Y-96429339D01*
X156470831Y-96412724D01*
X156375809Y-96400214D01*
X156334259Y-96387013D01*
X156299846Y-96360247D01*
X156180870Y-96228110D01*
X156027730Y-96116848D01*
X155854802Y-96039855D01*
X155669648Y-96000500D01*
X155669646Y-96000500D01*
X155480354Y-96000500D01*
X155480352Y-96000500D01*
X155295197Y-96039855D01*
X155122269Y-96116848D01*
X154969129Y-96228110D01*
X154842466Y-96368783D01*
X154747821Y-96532714D01*
X154729255Y-96589855D01*
X154709700Y-96627023D01*
X154645835Y-96710252D01*
X154595339Y-96832161D01*
X154578724Y-96894169D01*
X154561500Y-97024999D01*
X154561500Y-97666000D01*
X154544887Y-97728000D01*
X154499500Y-97773387D01*
X154437500Y-97790000D01*
X154076967Y-97790000D01*
X154074247Y-97789459D01*
X154026446Y-97789459D01*
X154026240Y-97789500D01*
X151281760Y-97789500D01*
X151281554Y-97789459D01*
X151256998Y-97789459D01*
X151256807Y-97789538D01*
X151256619Y-97789615D01*
X151256615Y-97789618D01*
X151256459Y-97789999D01*
X151256476Y-97814616D01*
X151256471Y-97814616D01*
X151256500Y-97814760D01*
X151256500Y-98908240D01*
X151256459Y-98908446D01*
X151256459Y-98933000D01*
X151256500Y-98933099D01*
X151256617Y-98933383D01*
X151256618Y-98933384D01*
X151256808Y-98933461D01*
X151257000Y-98933541D01*
X151257002Y-98933539D01*
X151281616Y-98933524D01*
X151281616Y-98933528D01*
X151281760Y-98933500D01*
X154026240Y-98933500D01*
X154026383Y-98933528D01*
X154026384Y-98933524D01*
X154050998Y-98933540D01*
X154051000Y-98933541D01*
X154051001Y-98933540D01*
X154074073Y-98933556D01*
X154076885Y-98933000D01*
X155041115Y-98933000D01*
X155043926Y-98933556D01*
X155066998Y-98933540D01*
X155067000Y-98933541D01*
X155067001Y-98933540D01*
X155091616Y-98933524D01*
X155091616Y-98933528D01*
X155091760Y-98933500D01*
X161646240Y-98933500D01*
X161646383Y-98933528D01*
X161646384Y-98933524D01*
X161670998Y-98933540D01*
X161671000Y-98933541D01*
X161671001Y-98933540D01*
X161694073Y-98933556D01*
X161696885Y-98933000D01*
X162661115Y-98933000D01*
X162663926Y-98933556D01*
X162686998Y-98933540D01*
X162687000Y-98933541D01*
X162687001Y-98933540D01*
X162711616Y-98933524D01*
X162711616Y-98933528D01*
X162711760Y-98933500D01*
X165456240Y-98933500D01*
X165456383Y-98933528D01*
X165456384Y-98933524D01*
X165480997Y-98933539D01*
X165481000Y-98933541D01*
X165481383Y-98933383D01*
X165481500Y-98933099D01*
X165481541Y-98933000D01*
X165481541Y-98908446D01*
X165481500Y-98908240D01*
X165481500Y-97814760D01*
X165481528Y-97814616D01*
X165481524Y-97814616D01*
X165481539Y-97790002D01*
X165481541Y-97790000D01*
X165481461Y-97789808D01*
X165481384Y-97789618D01*
X165481380Y-97789614D01*
X165481194Y-97789538D01*
X165481002Y-97789459D01*
X165456446Y-97789459D01*
X165456240Y-97789500D01*
X162711760Y-97789500D01*
X162711554Y-97789459D01*
X162663753Y-97789459D01*
X162661033Y-97790000D01*
X162300500Y-97790000D01*
X162238500Y-97773387D01*
X162193113Y-97728000D01*
X162176500Y-97666000D01*
X162176500Y-97093272D01*
X162185529Y-97046821D01*
X162211302Y-97007135D01*
X162250064Y-96979993D01*
X162377730Y-96923151D01*
X162530870Y-96811889D01*
X162584931Y-96751849D01*
X162657533Y-96671216D01*
X162752179Y-96507284D01*
X162810674Y-96327256D01*
X162830460Y-96139000D01*
X162810674Y-95950744D01*
X162752179Y-95770716D01*
X162752179Y-95770715D01*
X162692113Y-95666678D01*
X162675500Y-95604678D01*
X162675500Y-94260322D01*
X162692113Y-94198322D01*
X162752179Y-94094284D01*
X162786228Y-93989492D01*
X162810674Y-93914256D01*
X162830460Y-93726000D01*
X162810674Y-93537744D01*
X162764207Y-93394735D01*
X162752180Y-93357718D01*
X162752178Y-93357715D01*
X162707307Y-93279996D01*
X162690696Y-93218000D01*
X162707307Y-93156003D01*
X162752179Y-93078284D01*
X162810674Y-92898256D01*
X162830460Y-92710000D01*
X162810674Y-92521744D01*
X162777650Y-92420106D01*
X162752179Y-92341715D01*
X162657533Y-92177783D01*
X162530870Y-92037110D01*
X162377730Y-91925848D01*
X162204802Y-91848855D01*
X162019648Y-91809500D01*
X162019646Y-91809500D01*
X161830354Y-91809500D01*
X161830352Y-91809500D01*
X161645197Y-91848855D01*
X161472269Y-91925848D01*
X161319129Y-92037110D01*
X161192466Y-92177783D01*
X161097820Y-92341715D01*
X161039326Y-92521742D01*
X161019540Y-92709999D01*
X161039326Y-92898257D01*
X161097820Y-93078284D01*
X161142690Y-93156000D01*
X161159303Y-93218000D01*
X161142690Y-93280000D01*
X161097820Y-93357715D01*
X161039326Y-93537742D01*
X161019540Y-93726000D01*
X161039326Y-93914257D01*
X161097820Y-94094284D01*
X161157887Y-94198322D01*
X161174500Y-94260322D01*
X161174500Y-95604678D01*
X161157887Y-95666678D01*
X161097821Y-95770714D01*
X161041929Y-95942731D01*
X161006971Y-95996561D01*
X160949782Y-96025702D01*
X160883196Y-96039856D01*
X160710267Y-96116849D01*
X160557129Y-96228110D01*
X160438153Y-96360247D01*
X160403740Y-96387013D01*
X160362190Y-96400214D01*
X160267168Y-96412724D01*
X160205161Y-96429339D01*
X160068167Y-96486084D01*
X160067444Y-96484338D01*
X160022912Y-96501654D01*
X159954850Y-96488114D01*
X159904722Y-96440126D01*
X159863533Y-96368784D01*
X159826141Y-96327256D01*
X159763350Y-96257519D01*
X159739736Y-96218985D01*
X159731500Y-96174547D01*
X159731500Y-89518000D01*
X168512000Y-89518000D01*
X168512000Y-90065824D01*
X168518402Y-90125375D01*
X168568647Y-90260089D01*
X168654811Y-90375188D01*
X168769910Y-90461352D01*
X168904624Y-90511597D01*
X168964176Y-90518000D01*
X169212000Y-90518000D01*
X169212000Y-89518000D01*
X168512000Y-89518000D01*
X159731500Y-89518000D01*
X159731500Y-89226147D01*
X159740939Y-89178694D01*
X159767819Y-89138466D01*
X159888285Y-89018000D01*
X168512000Y-89018000D01*
X169212000Y-89018000D01*
X169212000Y-88018000D01*
X168964176Y-88018000D01*
X168904624Y-88024402D01*
X168769910Y-88074647D01*
X168654811Y-88160811D01*
X168568647Y-88275910D01*
X168518402Y-88410624D01*
X168512000Y-88470176D01*
X168512000Y-89018000D01*
X159888285Y-89018000D01*
X167998284Y-80908000D01*
X173312000Y-80908000D01*
X173312000Y-81055824D01*
X173318402Y-81115375D01*
X173368647Y-81250089D01*
X173454811Y-81365188D01*
X173569910Y-81451352D01*
X173704624Y-81501597D01*
X173764176Y-81508000D01*
X173912000Y-81508000D01*
X173912000Y-80908000D01*
X174412000Y-80908000D01*
X174412000Y-81508000D01*
X174559824Y-81508000D01*
X174619378Y-81501597D01*
X174668665Y-81483214D01*
X174712000Y-81475395D01*
X174755335Y-81483214D01*
X174804621Y-81501597D01*
X174864176Y-81508000D01*
X175012000Y-81508000D01*
X175012000Y-80908000D01*
X175512000Y-80908000D01*
X175512000Y-81508000D01*
X175659824Y-81508000D01*
X175719378Y-81501597D01*
X175768665Y-81483214D01*
X175812000Y-81475395D01*
X175855335Y-81483214D01*
X175904621Y-81501597D01*
X175964176Y-81508000D01*
X176112000Y-81508000D01*
X176112000Y-80908000D01*
X176612000Y-80908000D01*
X176612000Y-81508000D01*
X176759824Y-81508000D01*
X176819375Y-81501597D01*
X176954089Y-81451352D01*
X177069188Y-81365188D01*
X177155352Y-81250089D01*
X177205597Y-81115375D01*
X177212000Y-81055824D01*
X177212000Y-80908000D01*
X176612000Y-80908000D01*
X176112000Y-80908000D01*
X175512000Y-80908000D01*
X175012000Y-80908000D01*
X174412000Y-80908000D01*
X173912000Y-80908000D01*
X173312000Y-80908000D01*
X167998284Y-80908000D01*
X169048284Y-79858000D01*
X173312000Y-79858000D01*
X173312000Y-80005824D01*
X173318402Y-80065377D01*
X173327462Y-80089669D01*
X173335279Y-80133000D01*
X173327462Y-80176331D01*
X173318402Y-80200622D01*
X173312000Y-80260176D01*
X173312000Y-80408000D01*
X173912000Y-80408000D01*
X173912000Y-79858000D01*
X174412000Y-79858000D01*
X174412000Y-80408000D01*
X175012000Y-80408000D01*
X175012000Y-79858000D01*
X175512000Y-79858000D01*
X175512000Y-80408000D01*
X176112000Y-80408000D01*
X176112000Y-79858000D01*
X176612000Y-79858000D01*
X176612000Y-80408000D01*
X177212000Y-80408000D01*
X177212000Y-80260176D01*
X177205597Y-80200622D01*
X177196539Y-80176337D01*
X177188719Y-80133000D01*
X177196539Y-80089663D01*
X177205597Y-80065377D01*
X177212000Y-80005824D01*
X177212000Y-79858000D01*
X176612000Y-79858000D01*
X176112000Y-79858000D01*
X175512000Y-79858000D01*
X175012000Y-79858000D01*
X174412000Y-79858000D01*
X173912000Y-79858000D01*
X173312000Y-79858000D01*
X169048284Y-79858000D01*
X170198284Y-78708000D01*
X173312000Y-78708000D01*
X173312000Y-78855824D01*
X173318402Y-78915378D01*
X173346110Y-78989666D01*
X173353928Y-79032998D01*
X173346110Y-79076331D01*
X173318402Y-79150620D01*
X173312000Y-79210176D01*
X173312000Y-79358000D01*
X173912000Y-79358000D01*
X173912000Y-78708000D01*
X174412000Y-78708000D01*
X174412000Y-79358000D01*
X175012000Y-79358000D01*
X175012000Y-78708000D01*
X175512000Y-78708000D01*
X175512000Y-79358000D01*
X176112000Y-79358000D01*
X176112000Y-78708000D01*
X176612000Y-78708000D01*
X176612000Y-79358000D01*
X177212000Y-79358000D01*
X177212000Y-79210176D01*
X177205597Y-79150623D01*
X177177888Y-79076332D01*
X177170070Y-79032997D01*
X177177889Y-78989662D01*
X177205597Y-78915376D01*
X177212000Y-78855824D01*
X177212000Y-78708000D01*
X176612000Y-78708000D01*
X176112000Y-78708000D01*
X175512000Y-78708000D01*
X175012000Y-78708000D01*
X174412000Y-78708000D01*
X173912000Y-78708000D01*
X173312000Y-78708000D01*
X170198284Y-78708000D01*
X170698284Y-78208000D01*
X173312000Y-78208000D01*
X173912000Y-78208000D01*
X173912000Y-77608000D01*
X174412000Y-77608000D01*
X174412000Y-78208000D01*
X175012000Y-78208000D01*
X175012000Y-77608000D01*
X175512000Y-77608000D01*
X175512000Y-78208000D01*
X176112000Y-78208000D01*
X176112000Y-77608000D01*
X176612000Y-77608000D01*
X176612000Y-78208000D01*
X177212000Y-78208000D01*
X177212000Y-78060176D01*
X177205597Y-78000624D01*
X177155352Y-77865910D01*
X177069188Y-77750811D01*
X176954089Y-77664647D01*
X176819375Y-77614402D01*
X176759824Y-77608000D01*
X176612000Y-77608000D01*
X176112000Y-77608000D01*
X175964176Y-77608000D01*
X175904622Y-77614402D01*
X175855333Y-77632786D01*
X175812000Y-77640604D01*
X175768667Y-77632786D01*
X175719377Y-77614402D01*
X175659824Y-77608000D01*
X175512000Y-77608000D01*
X175012000Y-77608000D01*
X174864176Y-77608000D01*
X174804622Y-77614402D01*
X174755333Y-77632786D01*
X174712000Y-77640604D01*
X174668667Y-77632786D01*
X174619377Y-77614402D01*
X174559824Y-77608000D01*
X174412000Y-77608000D01*
X173912000Y-77608000D01*
X173764176Y-77608000D01*
X173704624Y-77614402D01*
X173569910Y-77664647D01*
X173454811Y-77750811D01*
X173368647Y-77865910D01*
X173318402Y-78000624D01*
X173312000Y-78060176D01*
X173312000Y-78208000D01*
X170698284Y-78208000D01*
X175851466Y-73054818D01*
X175891694Y-73027938D01*
X175939147Y-73018499D01*
X175959870Y-73018499D01*
X175959872Y-73018499D01*
X176019483Y-73012091D01*
X176154331Y-72961796D01*
X176154335Y-72961792D01*
X176168665Y-72956448D01*
X176211999Y-72948630D01*
X176255333Y-72956448D01*
X176269666Y-72961794D01*
X176269669Y-72961796D01*
X176404517Y-73012091D01*
X176464127Y-73018500D01*
X177459872Y-73018499D01*
X177519483Y-73012091D01*
X177654331Y-72961796D01*
X177654334Y-72961793D01*
X177668666Y-72956448D01*
X177712055Y-72948630D01*
X177755437Y-72956487D01*
X177755937Y-72956674D01*
X177798123Y-72983125D01*
X177826503Y-73024038D01*
X177836500Y-73072817D01*
X177836500Y-74366256D01*
X177834235Y-74386762D01*
X177836439Y-74456873D01*
X177836500Y-74460768D01*
X177836500Y-74488349D01*
X177837003Y-74492334D01*
X177837918Y-74503967D01*
X177839290Y-74547626D01*
X177844879Y-74566860D01*
X177848825Y-74585916D01*
X177851335Y-74605792D01*
X177867414Y-74646404D01*
X177871197Y-74657451D01*
X177883382Y-74699391D01*
X177893580Y-74716635D01*
X177902136Y-74734100D01*
X177909514Y-74752732D01*
X177909515Y-74752733D01*
X177935180Y-74788059D01*
X177941593Y-74797822D01*
X177963826Y-74835416D01*
X177963829Y-74835419D01*
X177963830Y-74835420D01*
X177977995Y-74849585D01*
X177990627Y-74864375D01*
X178002406Y-74880587D01*
X178036058Y-74908426D01*
X178044699Y-74916289D01*
X179020038Y-75891628D01*
X179044277Y-75925925D01*
X179055678Y-75966347D01*
X179073326Y-76134257D01*
X179131820Y-76314284D01*
X179226466Y-76478216D01*
X179353129Y-76618889D01*
X179506269Y-76730151D01*
X179679197Y-76807144D01*
X179864352Y-76846500D01*
X179864354Y-76846500D01*
X180053646Y-76846500D01*
X180053648Y-76846500D01*
X180177083Y-76820262D01*
X180238803Y-76807144D01*
X180411730Y-76730151D01*
X180411729Y-76730151D01*
X180564870Y-76618889D01*
X180691533Y-76478216D01*
X180786179Y-76314284D01*
X180786179Y-76314283D01*
X180844674Y-76134256D01*
X180864460Y-75946000D01*
X180844674Y-75757744D01*
X180798540Y-75615759D01*
X180786179Y-75577715D01*
X180691533Y-75413783D01*
X180564870Y-75273110D01*
X180411730Y-75161848D01*
X180238802Y-75084855D01*
X180053648Y-75045500D01*
X180053646Y-75045500D01*
X179994452Y-75045500D01*
X179946999Y-75036061D01*
X179906771Y-75009181D01*
X179123819Y-74226228D01*
X179096939Y-74186000D01*
X179087500Y-74138547D01*
X179087500Y-73072817D01*
X179097486Y-73024063D01*
X179125837Y-72983163D01*
X179167986Y-72956703D01*
X179168485Y-72956516D01*
X179211903Y-72948630D01*
X179255333Y-72956448D01*
X179269666Y-72961794D01*
X179269669Y-72961796D01*
X179404517Y-73012091D01*
X179464127Y-73018500D01*
X180459872Y-73018499D01*
X180519483Y-73012091D01*
X180519488Y-73012089D01*
X180521796Y-73011841D01*
X180582299Y-73020485D01*
X180631324Y-73056980D01*
X180656961Y-73112461D01*
X180652982Y-73173448D01*
X180597326Y-73344740D01*
X180577540Y-73533000D01*
X180597326Y-73721257D01*
X180655820Y-73901284D01*
X180750466Y-74065216D01*
X180877129Y-74205889D01*
X181030269Y-74317151D01*
X181203197Y-74394144D01*
X181388352Y-74433500D01*
X181388354Y-74433500D01*
X181577646Y-74433500D01*
X181577648Y-74433500D01*
X181701083Y-74407262D01*
X181762803Y-74394144D01*
X181935730Y-74317151D01*
X181952927Y-74304657D01*
X182088870Y-74205889D01*
X182215533Y-74065216D01*
X182310179Y-73901284D01*
X182320069Y-73870847D01*
X182358959Y-73813621D01*
X182422459Y-73786143D01*
X182490797Y-73796966D01*
X182542697Y-73842722D01*
X182562000Y-73909165D01*
X182562000Y-87253835D01*
X182542697Y-87320278D01*
X182490797Y-87366034D01*
X182422459Y-87376857D01*
X182358959Y-87349379D01*
X182320069Y-87292153D01*
X182310179Y-87261715D01*
X182215533Y-87097783D01*
X182088870Y-86957110D01*
X181935730Y-86845848D01*
X181762802Y-86768855D01*
X181577648Y-86729500D01*
X181577646Y-86729500D01*
X181388354Y-86729500D01*
X181388352Y-86729500D01*
X181203197Y-86768855D01*
X181030269Y-86845848D01*
X180877129Y-86957110D01*
X180750466Y-87097783D01*
X180655820Y-87261715D01*
X180597326Y-87441742D01*
X180577540Y-87630000D01*
X180597326Y-87818257D01*
X180601431Y-87830889D01*
X180607500Y-87869207D01*
X180607500Y-87895326D01*
X180588605Y-87961120D01*
X180537679Y-88006864D01*
X180470242Y-88018614D01*
X180459873Y-88017500D01*
X179464130Y-88017500D01*
X179404515Y-88023909D01*
X179255333Y-88079551D01*
X179212000Y-88087369D01*
X179168667Y-88079551D01*
X179019485Y-88023909D01*
X178999613Y-88021772D01*
X178959873Y-88017500D01*
X178959869Y-88017500D01*
X177964130Y-88017500D01*
X177904515Y-88023909D01*
X177755333Y-88079551D01*
X177712000Y-88087369D01*
X177668667Y-88079551D01*
X177519485Y-88023909D01*
X177499613Y-88021772D01*
X177459873Y-88017500D01*
X177459869Y-88017500D01*
X176464130Y-88017500D01*
X176404515Y-88023909D01*
X176255333Y-88079551D01*
X176212000Y-88087369D01*
X176168667Y-88079551D01*
X176019485Y-88023909D01*
X175999613Y-88021772D01*
X175959873Y-88017500D01*
X175959869Y-88017500D01*
X174964130Y-88017500D01*
X174904515Y-88023909D01*
X174755333Y-88079551D01*
X174712000Y-88087369D01*
X174668667Y-88079551D01*
X174533619Y-88029181D01*
X174483239Y-87994202D01*
X174455786Y-87939357D01*
X174457975Y-87878064D01*
X174489269Y-87825320D01*
X175673771Y-86640819D01*
X175714000Y-86613939D01*
X175761453Y-86604500D01*
X178378900Y-86604500D01*
X178429335Y-86615220D01*
X178471050Y-86645528D01*
X178591129Y-86778889D01*
X178744269Y-86890151D01*
X178917197Y-86967144D01*
X179102352Y-87006500D01*
X179102354Y-87006500D01*
X179291646Y-87006500D01*
X179291648Y-87006500D01*
X179415084Y-86980262D01*
X179476803Y-86967144D01*
X179649730Y-86890151D01*
X179802871Y-86778888D01*
X179929533Y-86638216D01*
X180024179Y-86474284D01*
X180082674Y-86294256D01*
X180102460Y-86106000D01*
X180082674Y-85917744D01*
X180028774Y-85751857D01*
X180024179Y-85737715D01*
X179929533Y-85573783D01*
X179802870Y-85433110D01*
X179649730Y-85321848D01*
X179476802Y-85244855D01*
X179291648Y-85205500D01*
X179291646Y-85205500D01*
X179102354Y-85205500D01*
X179102352Y-85205500D01*
X178917197Y-85244855D01*
X178744272Y-85321847D01*
X178733303Y-85329817D01*
X178698735Y-85347431D01*
X178660416Y-85353500D01*
X175533740Y-85353500D01*
X175513236Y-85351236D01*
X175443144Y-85353439D01*
X175439250Y-85353500D01*
X175411648Y-85353500D01*
X175407653Y-85354004D01*
X175396029Y-85354918D01*
X175352372Y-85356290D01*
X175333135Y-85361879D01*
X175314094Y-85365822D01*
X175294208Y-85368335D01*
X175253582Y-85384419D01*
X175242537Y-85388200D01*
X175200613Y-85400381D01*
X175183365Y-85410581D01*
X175165903Y-85419135D01*
X175153915Y-85423881D01*
X175147265Y-85426515D01*
X175111926Y-85452189D01*
X175102168Y-85458599D01*
X175064579Y-85480829D01*
X175050410Y-85494998D01*
X175035622Y-85507628D01*
X175019413Y-85519405D01*
X174991572Y-85553058D01*
X174983711Y-85561696D01*
X172564226Y-87981181D01*
X172523998Y-88008061D01*
X172476545Y-88017500D01*
X171964130Y-88017500D01*
X171904515Y-88023909D01*
X171755333Y-88079551D01*
X171712000Y-88087369D01*
X171668667Y-88079551D01*
X171519485Y-88023909D01*
X171499613Y-88021772D01*
X171459873Y-88017500D01*
X171459869Y-88017500D01*
X170464130Y-88017500D01*
X170404515Y-88023909D01*
X170316500Y-88056737D01*
X170269669Y-88074204D01*
X170269668Y-88074204D01*
X170254618Y-88079818D01*
X170211285Y-88087636D01*
X170167951Y-88079818D01*
X170019375Y-88024402D01*
X169959824Y-88018000D01*
X169712000Y-88018000D01*
X169712000Y-90518000D01*
X169959824Y-90518000D01*
X170019375Y-90511597D01*
X170167951Y-90456182D01*
X170211277Y-90448364D01*
X170254604Y-90456177D01*
X170255819Y-90456630D01*
X170298062Y-90483067D01*
X170326486Y-90524000D01*
X170336500Y-90572817D01*
X170336500Y-95418101D01*
X170328264Y-95462539D01*
X170304652Y-95501070D01*
X170260987Y-95549565D01*
X170209464Y-95606786D01*
X170114820Y-95770715D01*
X170056326Y-95950742D01*
X170036540Y-96139000D01*
X170056326Y-96327257D01*
X170114820Y-96507284D01*
X170209466Y-96671216D01*
X170344850Y-96821574D01*
X170343485Y-96822802D01*
X170364822Y-96846806D01*
X170380256Y-96897669D01*
X170372976Y-96950321D01*
X170344320Y-96995088D01*
X165962228Y-101377181D01*
X165922000Y-101404061D01*
X165874547Y-101413500D01*
X152133452Y-101413500D01*
X152085999Y-101404061D01*
X152045771Y-101377181D01*
X147566802Y-96898211D01*
X147553906Y-96882113D01*
X147502775Y-96834098D01*
X147499978Y-96831387D01*
X147480470Y-96811879D01*
X147477290Y-96809412D01*
X147468424Y-96801839D01*
X147436582Y-96771938D01*
X147419024Y-96762285D01*
X147402764Y-96751604D01*
X147386936Y-96739327D01*
X147346851Y-96721980D01*
X147336361Y-96716841D01*
X147298091Y-96695802D01*
X147278691Y-96690821D01*
X147260284Y-96684519D01*
X147241897Y-96676562D01*
X147198758Y-96669729D01*
X147187324Y-96667361D01*
X147145019Y-96656500D01*
X147124984Y-96656500D01*
X147105586Y-96654973D01*
X147093387Y-96653041D01*
X147085805Y-96651840D01*
X147085804Y-96651840D01*
X147052751Y-96654964D01*
X147042325Y-96655950D01*
X147030656Y-96656500D01*
X105224747Y-96656500D01*
X105174312Y-96645780D01*
X105132598Y-96615473D01*
X105126871Y-96609112D01*
X104973730Y-96497849D01*
X104973729Y-96497848D01*
X104973727Y-96497847D01*
X104800802Y-96420855D01*
X104615648Y-96381500D01*
X104615646Y-96381500D01*
X104426354Y-96381500D01*
X104426352Y-96381500D01*
X104241197Y-96420855D01*
X104068269Y-96497848D01*
X103915129Y-96609110D01*
X103788466Y-96749783D01*
X103693820Y-96913715D01*
X103635326Y-97093742D01*
X103615540Y-97282000D01*
X103635326Y-97470257D01*
X103693820Y-97650284D01*
X103788466Y-97814216D01*
X103915129Y-97954889D01*
X104068269Y-98066151D01*
X104241197Y-98143144D01*
X104426352Y-98182500D01*
X104426354Y-98182500D01*
X104615646Y-98182500D01*
X104615648Y-98182500D01*
X104760484Y-98151714D01*
X104800803Y-98143144D01*
X104973730Y-98066151D01*
X105126871Y-97954888D01*
X105132598Y-97948526D01*
X105174312Y-97918220D01*
X105224747Y-97907500D01*
X121287500Y-97907500D01*
X121349500Y-97924113D01*
X121394887Y-97969500D01*
X121411500Y-98031500D01*
X121411500Y-120625240D01*
X121411459Y-120625446D01*
X121411459Y-120650000D01*
X121411500Y-120650099D01*
X121411617Y-120650383D01*
X121411618Y-120650384D01*
X121411808Y-120650461D01*
X121412000Y-120650541D01*
X121412002Y-120650539D01*
X121436616Y-120650524D01*
X121436616Y-120650528D01*
X121436760Y-120650500D01*
X144247240Y-120650500D01*
X144247383Y-120650528D01*
X144247384Y-120650524D01*
X144271997Y-120650539D01*
X144272000Y-120650541D01*
X144272383Y-120650383D01*
X144272500Y-120650099D01*
X144272541Y-120650000D01*
X144272541Y-120625446D01*
X144272500Y-120625240D01*
X144272500Y-105998610D01*
X175358942Y-105998610D01*
X175405766Y-106035055D01*
X175624393Y-106153368D01*
X175859506Y-106234083D01*
X176104707Y-106275000D01*
X176353293Y-106275000D01*
X176598493Y-106234083D01*
X176833606Y-106153368D01*
X177052233Y-106035053D01*
X177099056Y-105998609D01*
X176923316Y-105822869D01*
X179728500Y-105822869D01*
X179734909Y-105882483D01*
X179785204Y-106017331D01*
X179871454Y-106132546D01*
X179986669Y-106218796D01*
X180121517Y-106269091D01*
X180181127Y-106275500D01*
X182276872Y-106275499D01*
X182336483Y-106269091D01*
X182471331Y-106218796D01*
X182586546Y-106132546D01*
X182672796Y-106017331D01*
X182723091Y-105882483D01*
X182729500Y-105822873D01*
X182729499Y-103727128D01*
X182723091Y-103667517D01*
X182672796Y-103532669D01*
X182586546Y-103417454D01*
X182471331Y-103331204D01*
X182336483Y-103280909D01*
X182276873Y-103274500D01*
X182276869Y-103274500D01*
X180181130Y-103274500D01*
X180121515Y-103280909D01*
X179986669Y-103331204D01*
X179871454Y-103417454D01*
X179785204Y-103532668D01*
X179734909Y-103667516D01*
X179728500Y-103727130D01*
X179728500Y-105822869D01*
X176923316Y-105822869D01*
X176229000Y-105128553D01*
X175358942Y-105998609D01*
X175358942Y-105998610D01*
X144272500Y-105998610D01*
X144272500Y-104774999D01*
X174723858Y-104774999D01*
X174744386Y-105022732D01*
X174805413Y-105263721D01*
X174905268Y-105491370D01*
X175005563Y-105644882D01*
X175005564Y-105644882D01*
X175875447Y-104775001D01*
X176582553Y-104775001D01*
X177452434Y-105644882D01*
X177552730Y-105491369D01*
X177652586Y-105263721D01*
X177713613Y-105022732D01*
X177734141Y-104774999D01*
X177713613Y-104527267D01*
X177652586Y-104286278D01*
X177552730Y-104058630D01*
X177452434Y-103905116D01*
X176582553Y-104775000D01*
X176582553Y-104775001D01*
X175875447Y-104775001D01*
X175875447Y-104774999D01*
X175005564Y-103905116D01*
X174905266Y-104058634D01*
X174805413Y-104286278D01*
X174744386Y-104527267D01*
X174723858Y-104774999D01*
X144272500Y-104774999D01*
X144272500Y-98031500D01*
X144289113Y-97969500D01*
X144334500Y-97924113D01*
X144396500Y-97907500D01*
X146755548Y-97907500D01*
X146803001Y-97916939D01*
X146843229Y-97943819D01*
X150381800Y-101482390D01*
X150412541Y-101533300D01*
X150416043Y-101592668D01*
X150391498Y-101646838D01*
X150344555Y-101683350D01*
X150296269Y-101704848D01*
X150143129Y-101816110D01*
X150016466Y-101956783D01*
X149921820Y-102120715D01*
X149863326Y-102300742D01*
X149843540Y-102489000D01*
X149863326Y-102677257D01*
X149921820Y-102857284D01*
X150016466Y-103021216D01*
X150143129Y-103161889D01*
X150296269Y-103273151D01*
X150469197Y-103350144D01*
X150654352Y-103389500D01*
X150654354Y-103389500D01*
X150843646Y-103389500D01*
X150843648Y-103389500D01*
X150967083Y-103363262D01*
X151028803Y-103350144D01*
X151201730Y-103273151D01*
X151354871Y-103161888D01*
X151360598Y-103155526D01*
X151402312Y-103125220D01*
X151452747Y-103114500D01*
X165039633Y-103114500D01*
X165095928Y-103128015D01*
X165139951Y-103165615D01*
X165162106Y-103219102D01*
X165157564Y-103276818D01*
X165103326Y-103443742D01*
X165083540Y-103632000D01*
X165103326Y-103820257D01*
X165161820Y-104000284D01*
X165256466Y-104164216D01*
X165383129Y-104304889D01*
X165536269Y-104416151D01*
X165709197Y-104493144D01*
X165894352Y-104532500D01*
X165894354Y-104532500D01*
X166083646Y-104532500D01*
X166083648Y-104532500D01*
X166207084Y-104506262D01*
X166268803Y-104493144D01*
X166441730Y-104416151D01*
X166594871Y-104304888D01*
X166721533Y-104164216D01*
X166816179Y-104000284D01*
X166874674Y-103820256D01*
X166894342Y-103633122D01*
X166905741Y-103592704D01*
X166929978Y-103558409D01*
X166936997Y-103551390D01*
X175358942Y-103551390D01*
X176229000Y-104421447D01*
X176229001Y-104421447D01*
X177099057Y-103551390D01*
X177099056Y-103551388D01*
X177052235Y-103514947D01*
X176833606Y-103396631D01*
X176598493Y-103315916D01*
X176353293Y-103275000D01*
X176104707Y-103275000D01*
X175859506Y-103315916D01*
X175624393Y-103396631D01*
X175405764Y-103514946D01*
X175358942Y-103551388D01*
X175358942Y-103551390D01*
X166936997Y-103551390D01*
X173800913Y-96687474D01*
X173851305Y-96656896D01*
X173910125Y-96653041D01*
X173964079Y-96676781D01*
X174000974Y-96722753D01*
X174015464Y-96753828D01*
X174056118Y-96811888D01*
X174151005Y-96947401D01*
X174318099Y-97114495D01*
X174511671Y-97250035D01*
X174725837Y-97349903D01*
X174914409Y-97400430D01*
X174954092Y-97411063D01*
X175130532Y-97426500D01*
X175130534Y-97426500D01*
X175748466Y-97426500D01*
X175748468Y-97426500D01*
X175866094Y-97416208D01*
X175924908Y-97411063D01*
X176153163Y-97349903D01*
X176220501Y-97318502D01*
X176284249Y-97307405D01*
X176344910Y-97329934D01*
X176385962Y-97379955D01*
X176396225Y-97443845D01*
X176386540Y-97535998D01*
X176406326Y-97724257D01*
X176464820Y-97904284D01*
X176559464Y-98068213D01*
X176559467Y-98068216D01*
X176634652Y-98151717D01*
X176658264Y-98190249D01*
X176666500Y-98234687D01*
X176666500Y-98241548D01*
X176657061Y-98289001D01*
X176630181Y-98329229D01*
X173188126Y-101771281D01*
X173138763Y-101801531D01*
X173081047Y-101806073D01*
X173027560Y-101783918D01*
X172918730Y-101704849D01*
X172918729Y-101704848D01*
X172918727Y-101704847D01*
X172745802Y-101627855D01*
X172560648Y-101588500D01*
X172560646Y-101588500D01*
X172371354Y-101588500D01*
X172371352Y-101588500D01*
X172186197Y-101627855D01*
X172013269Y-101704848D01*
X171860129Y-101816110D01*
X171733466Y-101956783D01*
X171638820Y-102120715D01*
X171580326Y-102300742D01*
X171560540Y-102489000D01*
X171580326Y-102677257D01*
X171638820Y-102857284D01*
X171733466Y-103021216D01*
X171860129Y-103161889D01*
X172013269Y-103273151D01*
X172186197Y-103350144D01*
X172371352Y-103389500D01*
X172371354Y-103389500D01*
X172560646Y-103389500D01*
X172560648Y-103389500D01*
X172684083Y-103363262D01*
X172745803Y-103350144D01*
X172918730Y-103273151D01*
X173071871Y-103161888D01*
X173077598Y-103155526D01*
X173119312Y-103125220D01*
X173169747Y-103114500D01*
X173272256Y-103114500D01*
X173292762Y-103116764D01*
X173295665Y-103116672D01*
X173295667Y-103116673D01*
X173362872Y-103114561D01*
X173366768Y-103114500D01*
X173394349Y-103114500D01*
X173394350Y-103114500D01*
X173398319Y-103113998D01*
X173409965Y-103113080D01*
X173453627Y-103111709D01*
X173472859Y-103106120D01*
X173491918Y-103102174D01*
X173498196Y-103101381D01*
X173511792Y-103099664D01*
X173552407Y-103083582D01*
X173563444Y-103079803D01*
X173605390Y-103067618D01*
X173622629Y-103057422D01*
X173640102Y-103048862D01*
X173658732Y-103041486D01*
X173694064Y-103015814D01*
X173703830Y-103009400D01*
X173741418Y-102987171D01*
X173741417Y-102987171D01*
X173741420Y-102987170D01*
X173755585Y-102973004D01*
X173770373Y-102960373D01*
X173786587Y-102948594D01*
X173814438Y-102914926D01*
X173822279Y-102906309D01*
X177675786Y-99052802D01*
X177691887Y-99039904D01*
X177693874Y-99037787D01*
X177693877Y-99037786D01*
X177739932Y-98988741D01*
X177742613Y-98985976D01*
X177762120Y-98966470D01*
X177764581Y-98963295D01*
X177772152Y-98954431D01*
X177802062Y-98922582D01*
X177811712Y-98905027D01*
X177822400Y-98888757D01*
X177834673Y-98872936D01*
X177852022Y-98832841D01*
X177857157Y-98822362D01*
X177878196Y-98784093D01*
X177878197Y-98784092D01*
X177883178Y-98764690D01*
X177889478Y-98746287D01*
X177897438Y-98727895D01*
X177904270Y-98684748D01*
X177906639Y-98673315D01*
X177917500Y-98631020D01*
X177917500Y-98610984D01*
X177919027Y-98591585D01*
X177922160Y-98571804D01*
X177918050Y-98528325D01*
X177917500Y-98516656D01*
X177917500Y-98234687D01*
X177925736Y-98190249D01*
X177949347Y-98151717D01*
X178024533Y-98068216D01*
X178119179Y-97904284D01*
X178177674Y-97724256D01*
X178197460Y-97536000D01*
X178177674Y-97347744D01*
X178119179Y-97167716D01*
X178119179Y-97167715D01*
X178024533Y-97003783D01*
X177897870Y-96863110D01*
X177744730Y-96751848D01*
X177571802Y-96674855D01*
X177386648Y-96635500D01*
X177386646Y-96635500D01*
X177197354Y-96635500D01*
X177154180Y-96644676D01*
X177119970Y-96651948D01*
X177057418Y-96649079D01*
X177004243Y-96616012D01*
X176974005Y-96561180D01*
X176974414Y-96498565D01*
X177024563Y-96311408D01*
X177045159Y-96076000D01*
X177040269Y-96020114D01*
X177024563Y-95840592D01*
X176971783Y-95643613D01*
X176963403Y-95612337D01*
X176863535Y-95398171D01*
X176727995Y-95204599D01*
X176560901Y-95037505D01*
X176367329Y-94901965D01*
X176153164Y-94802097D01*
X175992408Y-94759023D01*
X175936821Y-94726929D01*
X175904727Y-94671342D01*
X175904727Y-94607155D01*
X175936819Y-94551569D01*
X176351292Y-94137096D01*
X176401680Y-94106520D01*
X176460500Y-94102665D01*
X176514454Y-94126405D01*
X176551350Y-94172375D01*
X176565901Y-94203580D01*
X176701390Y-94397078D01*
X176868418Y-94564106D01*
X177061923Y-94699600D01*
X177276007Y-94799430D01*
X177489499Y-94856635D01*
X177489500Y-94856636D01*
X177489500Y-93526000D01*
X177989500Y-93526000D01*
X177989500Y-94856635D01*
X178202992Y-94799430D01*
X178417078Y-94699599D01*
X178610578Y-94564109D01*
X178777609Y-94397078D01*
X178913099Y-94203578D01*
X179012930Y-93989492D01*
X179074069Y-93761318D01*
X179089500Y-93584947D01*
X179089500Y-93526000D01*
X177989500Y-93526000D01*
X177489500Y-93526000D01*
X177489500Y-91695364D01*
X177469748Y-91680208D01*
X177431305Y-91630780D01*
X177421914Y-91568876D01*
X177435460Y-91440000D01*
X177415674Y-91251744D01*
X177408997Y-91231197D01*
X177405915Y-91165832D01*
X177436537Y-91107997D01*
X177492334Y-91073805D01*
X177557767Y-91072777D01*
X177614610Y-91105200D01*
X178011325Y-91501916D01*
X178044705Y-91562758D01*
X178040166Y-91632006D01*
X177999132Y-91687972D01*
X177989500Y-91695363D01*
X177989500Y-93026000D01*
X179089500Y-93026000D01*
X179089500Y-92967053D01*
X179074069Y-92790681D01*
X179025145Y-92608094D01*
X179023303Y-92551809D01*
X179046544Y-92500514D01*
X179090076Y-92464788D01*
X179144920Y-92452000D01*
X179161516Y-92452000D01*
X179180915Y-92453527D01*
X179200696Y-92456660D01*
X179244174Y-92452550D01*
X179255844Y-92452000D01*
X232321756Y-92452000D01*
X232342262Y-92454264D01*
X232345165Y-92454172D01*
X232345167Y-92454173D01*
X232412372Y-92452061D01*
X232416268Y-92452000D01*
X232443849Y-92452000D01*
X232443850Y-92452000D01*
X232447819Y-92451498D01*
X232459465Y-92450580D01*
X232503127Y-92449209D01*
X232522359Y-92443620D01*
X232541418Y-92439674D01*
X232547696Y-92438881D01*
X232561292Y-92437164D01*
X232601907Y-92421082D01*
X232612944Y-92417303D01*
X232654890Y-92405118D01*
X232672129Y-92394922D01*
X232689602Y-92386362D01*
X232708232Y-92378986D01*
X232743564Y-92353314D01*
X232753330Y-92346900D01*
X232770811Y-92336562D01*
X232790920Y-92324670D01*
X232805085Y-92310504D01*
X232819873Y-92297873D01*
X232836087Y-92286094D01*
X232863938Y-92252426D01*
X232871779Y-92243809D01*
X235453589Y-89662000D01*
X244855459Y-89662000D01*
X244855500Y-89662099D01*
X244855617Y-89662382D01*
X244855617Y-89662383D01*
X244855618Y-89662384D01*
X244855808Y-89662461D01*
X244856000Y-89662541D01*
X244856002Y-89662539D01*
X244880616Y-89662524D01*
X244880616Y-89662528D01*
X244880760Y-89662500D01*
X267691240Y-89662500D01*
X267691383Y-89662528D01*
X267691384Y-89662524D01*
X267715997Y-89662539D01*
X267716000Y-89662541D01*
X267716383Y-89662383D01*
X267716500Y-89662099D01*
X267716541Y-89662000D01*
X267716541Y-89637446D01*
X267716500Y-89637240D01*
X267716500Y-66826760D01*
X267716528Y-66826616D01*
X267716524Y-66826616D01*
X267716539Y-66802002D01*
X267716541Y-66802000D01*
X267716462Y-66801808D01*
X267716384Y-66801618D01*
X267716380Y-66801614D01*
X267716194Y-66801538D01*
X267716002Y-66801459D01*
X267691446Y-66801459D01*
X267691240Y-66801500D01*
X244880760Y-66801500D01*
X244880554Y-66801459D01*
X244855998Y-66801459D01*
X244855807Y-66801538D01*
X244855619Y-66801615D01*
X244855615Y-66801618D01*
X244855459Y-66801999D01*
X244855476Y-66826616D01*
X244855471Y-66826616D01*
X244855500Y-66826760D01*
X244855500Y-89637240D01*
X244855459Y-89637446D01*
X244855459Y-89662000D01*
X235453589Y-89662000D01*
X236358270Y-88757319D01*
X236398499Y-88730439D01*
X236445952Y-88721000D01*
X236505148Y-88721000D01*
X236628584Y-88694762D01*
X236690303Y-88681644D01*
X236863230Y-88604651D01*
X237016371Y-88493388D01*
X237143033Y-88352716D01*
X237237679Y-88188784D01*
X237296174Y-88008756D01*
X237315960Y-87820500D01*
X237296174Y-87632244D01*
X237237679Y-87452216D01*
X237237679Y-87452215D01*
X237143033Y-87288283D01*
X237016370Y-87147610D01*
X236863230Y-87036348D01*
X236690302Y-86959355D01*
X236505148Y-86920000D01*
X236505146Y-86920000D01*
X236315854Y-86920000D01*
X236315852Y-86920000D01*
X236130697Y-86959355D01*
X235957769Y-87036348D01*
X235804629Y-87147610D01*
X235677966Y-87288283D01*
X235583320Y-87452215D01*
X235524826Y-87632242D01*
X235507178Y-87800151D01*
X235495777Y-87840573D01*
X235471538Y-87874870D01*
X232181728Y-91164681D01*
X232141500Y-91191561D01*
X232094047Y-91201000D01*
X189255952Y-91201000D01*
X189199657Y-91187485D01*
X189155634Y-91149885D01*
X189133479Y-91096398D01*
X189138021Y-91038682D01*
X189168271Y-90989319D01*
X190495590Y-89662000D01*
X197357459Y-89662000D01*
X197357500Y-89662099D01*
X197357617Y-89662382D01*
X197357617Y-89662383D01*
X197357618Y-89662384D01*
X197357808Y-89662461D01*
X197358000Y-89662541D01*
X197358002Y-89662539D01*
X197382616Y-89662524D01*
X197382616Y-89662528D01*
X197382760Y-89662500D01*
X220193240Y-89662500D01*
X220193383Y-89662528D01*
X220193384Y-89662524D01*
X220217997Y-89662539D01*
X220218000Y-89662541D01*
X220218383Y-89662383D01*
X220218500Y-89662099D01*
X220218541Y-89662000D01*
X220218541Y-89637446D01*
X220218500Y-89637240D01*
X220218500Y-74676000D01*
X229102462Y-74676000D01*
X229122596Y-75047342D01*
X229182760Y-75414323D01*
X229282248Y-75772652D01*
X229419898Y-76118126D01*
X229594092Y-76446691D01*
X229802786Y-76754489D01*
X230043542Y-77037930D01*
X230313526Y-77293673D01*
X230512580Y-77444989D01*
X230609582Y-77518728D01*
X230928234Y-77710455D01*
X231265747Y-77866605D01*
X231498120Y-77944900D01*
X231618163Y-77985348D01*
X231683684Y-77999770D01*
X231981354Y-78065292D01*
X232295632Y-78099472D01*
X232351057Y-78105500D01*
X232351058Y-78105500D01*
X232722942Y-78105500D01*
X232722943Y-78105500D01*
X232755967Y-78101908D01*
X233092646Y-78065292D01*
X233455836Y-77985348D01*
X233808253Y-77866605D01*
X234145766Y-77710455D01*
X234464418Y-77518728D01*
X234760472Y-77293674D01*
X235030458Y-77037929D01*
X235271211Y-76754493D01*
X235479908Y-76446689D01*
X235481558Y-76443576D01*
X235654101Y-76118126D01*
X235791751Y-75772652D01*
X235876653Y-75466859D01*
X235891239Y-75414324D01*
X235951404Y-75047339D01*
X235971537Y-74676000D01*
X235951404Y-74304661D01*
X235891239Y-73937676D01*
X235872684Y-73870847D01*
X235791751Y-73579347D01*
X235654101Y-73233873D01*
X235479907Y-72905308D01*
X235271213Y-72597510D01*
X235271211Y-72597507D01*
X235127135Y-72427888D01*
X235030457Y-72314069D01*
X234760473Y-72058326D01*
X234464417Y-71833271D01*
X234145763Y-71641543D01*
X233808256Y-71485396D01*
X233455836Y-71366651D01*
X233158166Y-71301130D01*
X233092646Y-71286708D01*
X232907793Y-71266603D01*
X232722943Y-71246500D01*
X232722942Y-71246500D01*
X232351058Y-71246500D01*
X232351057Y-71246500D01*
X231981354Y-71286708D01*
X231618163Y-71366651D01*
X231265743Y-71485396D01*
X230928236Y-71641543D01*
X230609582Y-71833271D01*
X230313526Y-72058326D01*
X230043542Y-72314069D01*
X229802786Y-72597510D01*
X229594092Y-72905308D01*
X229419898Y-73233873D01*
X229282248Y-73579347D01*
X229182760Y-73937676D01*
X229122596Y-74304657D01*
X229102462Y-74676000D01*
X220218500Y-74676000D01*
X220218500Y-66826760D01*
X220218528Y-66826616D01*
X220218524Y-66826616D01*
X220218539Y-66802002D01*
X220218541Y-66802000D01*
X220218462Y-66801808D01*
X220218384Y-66801618D01*
X220218380Y-66801614D01*
X220218194Y-66801538D01*
X220218002Y-66801459D01*
X220193446Y-66801459D01*
X220193240Y-66801500D01*
X197382760Y-66801500D01*
X197382554Y-66801459D01*
X197357998Y-66801459D01*
X197357807Y-66801538D01*
X197357619Y-66801615D01*
X197357615Y-66801618D01*
X197357459Y-66801999D01*
X197357476Y-66826616D01*
X197357471Y-66826616D01*
X197357500Y-66826760D01*
X197357500Y-89637240D01*
X197357459Y-89637446D01*
X197357459Y-89662000D01*
X190495590Y-89662000D01*
X191082771Y-89074819D01*
X191122999Y-89047939D01*
X191170452Y-89038500D01*
X191229648Y-89038500D01*
X191353083Y-89012262D01*
X191414803Y-88999144D01*
X191587730Y-88922151D01*
X191740871Y-88810888D01*
X191867533Y-88670216D01*
X191962179Y-88506284D01*
X192020674Y-88326256D01*
X192040460Y-88138000D01*
X192020674Y-87949744D01*
X191984816Y-87839385D01*
X191962179Y-87769715D01*
X191867533Y-87605783D01*
X191740870Y-87465110D01*
X191587730Y-87353848D01*
X191414802Y-87276855D01*
X191229648Y-87237500D01*
X191229646Y-87237500D01*
X191040354Y-87237500D01*
X191040352Y-87237500D01*
X190855197Y-87276855D01*
X190682269Y-87353848D01*
X190529129Y-87465110D01*
X190402466Y-87605783D01*
X190307820Y-87769715D01*
X190249326Y-87949742D01*
X190231678Y-88117651D01*
X190220277Y-88158073D01*
X190196038Y-88192370D01*
X188773681Y-89614728D01*
X188724318Y-89644978D01*
X188691556Y-89647556D01*
X188688978Y-89680318D01*
X188658728Y-89729681D01*
X187673728Y-90714681D01*
X187633500Y-90741561D01*
X187586047Y-90751000D01*
X182357068Y-90751000D01*
X182298854Y-90736486D01*
X182254268Y-90696340D01*
X182233747Y-90639962D01*
X182217954Y-90489701D01*
X182227639Y-90427118D01*
X182266965Y-90377477D01*
X182269546Y-90375546D01*
X182355796Y-90260331D01*
X182406091Y-90125483D01*
X182412500Y-90065873D01*
X182412499Y-89642000D01*
X182429113Y-89580000D01*
X182474500Y-89534613D01*
X182536500Y-89518000D01*
X188562000Y-89518000D01*
X188562000Y-71518000D01*
X182562000Y-71518000D01*
X182536499Y-71518000D01*
X182474499Y-71501387D01*
X182429112Y-71456000D01*
X182412499Y-71394000D01*
X182412499Y-70970130D01*
X182412499Y-70970127D01*
X182406091Y-70910517D01*
X182355796Y-70775669D01*
X182269546Y-70660454D01*
X182164431Y-70581765D01*
X182125950Y-70534011D01*
X182115060Y-70473654D01*
X182134429Y-70415460D01*
X182179317Y-70373668D01*
X182238744Y-70358500D01*
X190475240Y-70358500D01*
X190475383Y-70358528D01*
X190475384Y-70358524D01*
X190499997Y-70358539D01*
X190500000Y-70358541D01*
X190500383Y-70358383D01*
X190500500Y-70358099D01*
X190500541Y-70358000D01*
X190500541Y-70333446D01*
X190500500Y-70333240D01*
X190500500Y-68885570D01*
X190509939Y-68838117D01*
X190536819Y-68797889D01*
X199353888Y-59980819D01*
X199394116Y-59953939D01*
X199441569Y-59944500D01*
X218134430Y-59944500D01*
X218181883Y-59953939D01*
X218222111Y-59980819D01*
X227058197Y-68816904D01*
X227058488Y-68817339D01*
X227075616Y-68834381D01*
X227075617Y-68834383D01*
X227075618Y-68834383D01*
X227075620Y-68834385D01*
X227075970Y-68834530D01*
X227075991Y-68834538D01*
X227076000Y-68834542D01*
X227076002Y-68834541D01*
X227100585Y-68834553D01*
X227100856Y-68834500D01*
X237973145Y-68834500D01*
X237973334Y-68834538D01*
X237997999Y-68834541D01*
X237998000Y-68834542D01*
X237998000Y-68834541D01*
X237998002Y-68834542D01*
X237998980Y-68834141D01*
X238000654Y-68833464D01*
X238006831Y-68825934D01*
X238016147Y-68816618D01*
X238016260Y-68816446D01*
X246851888Y-59980818D01*
X246892116Y-59953939D01*
X246939569Y-59944500D01*
X265632430Y-59944500D01*
X265679883Y-59953939D01*
X265720111Y-59980819D01*
X274537181Y-68797888D01*
X274564061Y-68838116D01*
X274573500Y-68885569D01*
X274573500Y-90051879D01*
X274557957Y-90111987D01*
X274515226Y-90157027D01*
X274456017Y-90175708D01*
X272164238Y-90296329D01*
X272157721Y-90296500D01*
X271981268Y-90296500D01*
X271623772Y-90334075D01*
X271623769Y-90334075D01*
X271623765Y-90334076D01*
X271272163Y-90408811D01*
X270930296Y-90519889D01*
X270764046Y-90593909D01*
X270601903Y-90666100D01*
X270601900Y-90666101D01*
X270601897Y-90666103D01*
X270290595Y-90845833D01*
X269999785Y-91057119D01*
X269732649Y-91297649D01*
X269492119Y-91564785D01*
X269280833Y-91855595D01*
X269101103Y-92166897D01*
X269101100Y-92166903D01*
X269073730Y-92228377D01*
X268954889Y-92495296D01*
X268843811Y-92837163D01*
X268769076Y-93188765D01*
X268769075Y-93188772D01*
X268731500Y-93546268D01*
X268731500Y-93905732D01*
X268765277Y-94227096D01*
X268769076Y-94263234D01*
X268843811Y-94614836D01*
X268954889Y-94956703D01*
X268954892Y-94956709D01*
X269101100Y-95285097D01*
X269101103Y-95285102D01*
X269280833Y-95596404D01*
X269492119Y-95887214D01*
X269732649Y-96154350D01*
X269999785Y-96394880D01*
X270290595Y-96606166D01*
X270341403Y-96635500D01*
X270601903Y-96785900D01*
X270930291Y-96932108D01*
X270930292Y-96932108D01*
X270930296Y-96932110D01*
X271098300Y-96986697D01*
X271272162Y-97043188D01*
X271623772Y-97117925D01*
X271981268Y-97155500D01*
X272157721Y-97155500D01*
X272164238Y-97155671D01*
X274456017Y-97276292D01*
X274515226Y-97294973D01*
X274557957Y-97340013D01*
X274573500Y-97400121D01*
X274573500Y-118566431D01*
X274564061Y-118613884D01*
X274537181Y-118654112D01*
X265720111Y-127471181D01*
X265679883Y-127498061D01*
X265632430Y-127507500D01*
X246939569Y-127507500D01*
X246892116Y-127498061D01*
X246851888Y-127471181D01*
X242430991Y-123050284D01*
X240030708Y-120650000D01*
X244855459Y-120650000D01*
X244855500Y-120650099D01*
X244855617Y-120650383D01*
X244855618Y-120650384D01*
X244855808Y-120650461D01*
X244856000Y-120650541D01*
X244856002Y-120650539D01*
X244880616Y-120650524D01*
X244880616Y-120650528D01*
X244880760Y-120650500D01*
X267691240Y-120650500D01*
X267691383Y-120650528D01*
X267691384Y-120650524D01*
X267715997Y-120650539D01*
X267716000Y-120650541D01*
X267716383Y-120650383D01*
X267716500Y-120650099D01*
X267716541Y-120650000D01*
X267716541Y-120625446D01*
X267716500Y-120625240D01*
X267716500Y-97814760D01*
X267716528Y-97814616D01*
X267716524Y-97814616D01*
X267716539Y-97790002D01*
X267716541Y-97790000D01*
X267716461Y-97789808D01*
X267716384Y-97789618D01*
X267716380Y-97789614D01*
X267716194Y-97789538D01*
X267716002Y-97789459D01*
X267691446Y-97789459D01*
X267691240Y-97789500D01*
X244880760Y-97789500D01*
X244880554Y-97789459D01*
X244855998Y-97789459D01*
X244855807Y-97789538D01*
X244855619Y-97789615D01*
X244855615Y-97789618D01*
X244855459Y-97789999D01*
X244855476Y-97814616D01*
X244855471Y-97814616D01*
X244855500Y-97814760D01*
X244855500Y-120625240D01*
X244855459Y-120625446D01*
X244855459Y-120650000D01*
X240030708Y-120650000D01*
X238009669Y-118628961D01*
X237998382Y-118617616D01*
X237998285Y-118617576D01*
X237998150Y-118617520D01*
X237998000Y-118617458D01*
X237973334Y-118617461D01*
X237973145Y-118617500D01*
X227100856Y-118617500D01*
X227100703Y-118617469D01*
X227100703Y-118617478D01*
X227076001Y-118617458D01*
X227076000Y-118617458D01*
X227075756Y-118617559D01*
X227075617Y-118617617D01*
X227075615Y-118617618D01*
X227058558Y-118634635D01*
X227058357Y-118634934D01*
X218222111Y-127471181D01*
X218181883Y-127498061D01*
X218134430Y-127507500D01*
X199441569Y-127507500D01*
X199394116Y-127498061D01*
X199353888Y-127471181D01*
X194932991Y-123050284D01*
X192532708Y-120650000D01*
X197357459Y-120650000D01*
X197357500Y-120650099D01*
X197357617Y-120650383D01*
X197357618Y-120650384D01*
X197357808Y-120650461D01*
X197358000Y-120650541D01*
X197358002Y-120650539D01*
X197382616Y-120650524D01*
X197382616Y-120650528D01*
X197382760Y-120650500D01*
X220193240Y-120650500D01*
X220193383Y-120650528D01*
X220193384Y-120650524D01*
X220217997Y-120650539D01*
X220218000Y-120650541D01*
X220218383Y-120650383D01*
X220218500Y-120650099D01*
X220218541Y-120650000D01*
X220218541Y-120625446D01*
X220218500Y-120625240D01*
X220218500Y-112775999D01*
X229102462Y-112775999D01*
X229122596Y-113147342D01*
X229182760Y-113514323D01*
X229282248Y-113872652D01*
X229419898Y-114218126D01*
X229594092Y-114546691D01*
X229802786Y-114854489D01*
X230043542Y-115137930D01*
X230313526Y-115393673D01*
X230603010Y-115613732D01*
X230609582Y-115618728D01*
X230928234Y-115810455D01*
X231265747Y-115966605D01*
X231498120Y-116044900D01*
X231618163Y-116085348D01*
X231683684Y-116099770D01*
X231981354Y-116165292D01*
X232295632Y-116199472D01*
X232351057Y-116205500D01*
X232351058Y-116205500D01*
X232722942Y-116205500D01*
X232722943Y-116205500D01*
X232755967Y-116201908D01*
X233092646Y-116165292D01*
X233455836Y-116085348D01*
X233808253Y-115966605D01*
X234145766Y-115810455D01*
X234464418Y-115618728D01*
X234760472Y-115393674D01*
X235030458Y-115137929D01*
X235271211Y-114854493D01*
X235479908Y-114546689D01*
X235481558Y-114543576D01*
X235654101Y-114218126D01*
X235791751Y-113872652D01*
X235891239Y-113514323D01*
X235891452Y-113513026D01*
X235951404Y-113147339D01*
X235971537Y-112776000D01*
X235951404Y-112404661D01*
X235891239Y-112037676D01*
X235891238Y-112037675D01*
X235791751Y-111679347D01*
X235654101Y-111333873D01*
X235479907Y-111005308D01*
X235271213Y-110697510D01*
X235271211Y-110697507D01*
X235165371Y-110572903D01*
X235030457Y-110414069D01*
X234760473Y-110158326D01*
X234464417Y-109933271D01*
X234145763Y-109741543D01*
X233808256Y-109585396D01*
X233455836Y-109466651D01*
X233158166Y-109401130D01*
X233092646Y-109386708D01*
X232907794Y-109366604D01*
X232722943Y-109346500D01*
X232722942Y-109346500D01*
X232351058Y-109346500D01*
X232351057Y-109346500D01*
X231981354Y-109386708D01*
X231618163Y-109466651D01*
X231265743Y-109585396D01*
X230928236Y-109741543D01*
X230609582Y-109933271D01*
X230313526Y-110158326D01*
X230043542Y-110414069D01*
X229802786Y-110697510D01*
X229594092Y-111005308D01*
X229419898Y-111333873D01*
X229282248Y-111679347D01*
X229182760Y-112037676D01*
X229122596Y-112404657D01*
X229102462Y-112775999D01*
X220218500Y-112775999D01*
X220218500Y-97814760D01*
X220218528Y-97814616D01*
X220218524Y-97814616D01*
X220218539Y-97790002D01*
X220218541Y-97790000D01*
X220218461Y-97789808D01*
X220218384Y-97789618D01*
X220218380Y-97789614D01*
X220218194Y-97789538D01*
X220218002Y-97789459D01*
X220193446Y-97789459D01*
X220193240Y-97789500D01*
X197382760Y-97789500D01*
X197382554Y-97789459D01*
X197357998Y-97789459D01*
X197357807Y-97789538D01*
X197357619Y-97789615D01*
X197357615Y-97789618D01*
X197357459Y-97789999D01*
X197357476Y-97814616D01*
X197357471Y-97814616D01*
X197357500Y-97814760D01*
X197357500Y-120625240D01*
X197357459Y-120625446D01*
X197357459Y-120650000D01*
X192532708Y-120650000D01*
X190511669Y-118628961D01*
X190500382Y-118617616D01*
X190500285Y-118617576D01*
X190500150Y-118617520D01*
X190500000Y-118617458D01*
X190475334Y-118617461D01*
X190475145Y-118617500D01*
X184020500Y-118617500D01*
X183958500Y-118600887D01*
X183913113Y-118555500D01*
X183896500Y-118493500D01*
X183896500Y-112800760D01*
X183896528Y-112800616D01*
X183896524Y-112800616D01*
X183896539Y-112776002D01*
X183896541Y-112776000D01*
X183896461Y-112775808D01*
X183896384Y-112775618D01*
X183896380Y-112775614D01*
X183896194Y-112775538D01*
X183896002Y-112775459D01*
X183871446Y-112775459D01*
X183871240Y-112775500D01*
X175284760Y-112775500D01*
X175284554Y-112775459D01*
X175259998Y-112775459D01*
X175259807Y-112775538D01*
X175259619Y-112775615D01*
X175259615Y-112775618D01*
X175259459Y-112775999D01*
X175259476Y-112800616D01*
X175259471Y-112800616D01*
X175259500Y-112800760D01*
X175259500Y-116208000D01*
X175242887Y-116270000D01*
X175197500Y-116315387D01*
X175135500Y-116332000D01*
X166494500Y-116332000D01*
X166432500Y-116315387D01*
X166387113Y-116270000D01*
X166370500Y-116208000D01*
X166370500Y-112800760D01*
X166370528Y-112800616D01*
X166370524Y-112800616D01*
X166370539Y-112776002D01*
X166370541Y-112776000D01*
X166370461Y-112775808D01*
X166370384Y-112775618D01*
X166370380Y-112775614D01*
X166370194Y-112775538D01*
X166370002Y-112775459D01*
X166345446Y-112775459D01*
X166345240Y-112775500D01*
X157758760Y-112775500D01*
X157758554Y-112775459D01*
X157733998Y-112775459D01*
X157733807Y-112775538D01*
X157733619Y-112775615D01*
X157733615Y-112775618D01*
X157733459Y-112775999D01*
X157733476Y-112800616D01*
X157733471Y-112800616D01*
X157733500Y-112800760D01*
X157733500Y-118493500D01*
X157716887Y-118555500D01*
X157671500Y-118600887D01*
X157609500Y-118617500D01*
X151154856Y-118617500D01*
X151154703Y-118617469D01*
X151154703Y-118617478D01*
X151130001Y-118617458D01*
X151130000Y-118617458D01*
X151129756Y-118617559D01*
X151129617Y-118617617D01*
X151129615Y-118617618D01*
X151112558Y-118634635D01*
X151112357Y-118634934D01*
X142276111Y-127471181D01*
X142235883Y-127498061D01*
X142188430Y-127507500D01*
X123495569Y-127507500D01*
X123448116Y-127498061D01*
X123407888Y-127471181D01*
X123395568Y-127458861D01*
X123394939Y-127458228D01*
X114681000Y-118618000D01*
X114580041Y-118618000D01*
X114577305Y-118617454D01*
X114529334Y-118617461D01*
X114529145Y-118617500D01*
X103656856Y-118617500D01*
X103656703Y-118617469D01*
X103656703Y-118617478D01*
X103632001Y-118617458D01*
X103632000Y-118617458D01*
X103631756Y-118617559D01*
X103631617Y-118617617D01*
X103631615Y-118617618D01*
X103614558Y-118634635D01*
X103614357Y-118634934D01*
X94778111Y-127471181D01*
X94737883Y-127498061D01*
X94690430Y-127507500D01*
X75997569Y-127507500D01*
X75950116Y-127498061D01*
X75909888Y-127471181D01*
X69088708Y-120650000D01*
X73913459Y-120650000D01*
X73913500Y-120650099D01*
X73913617Y-120650383D01*
X73913618Y-120650384D01*
X73913808Y-120650461D01*
X73914000Y-120650541D01*
X73914002Y-120650539D01*
X73938616Y-120650524D01*
X73938616Y-120650528D01*
X73938760Y-120650500D01*
X96749240Y-120650500D01*
X96749383Y-120650528D01*
X96749384Y-120650524D01*
X96773997Y-120650539D01*
X96774000Y-120650541D01*
X96774383Y-120650383D01*
X96774500Y-120650099D01*
X96774541Y-120650000D01*
X96774541Y-120625446D01*
X96774500Y-120625240D01*
X96774500Y-112775999D01*
X105658462Y-112775999D01*
X105678596Y-113147342D01*
X105738760Y-113514323D01*
X105838248Y-113872652D01*
X105975898Y-114218126D01*
X106150092Y-114546691D01*
X106358786Y-114854489D01*
X106599542Y-115137930D01*
X106869526Y-115393673D01*
X107159010Y-115613732D01*
X107165582Y-115618728D01*
X107484234Y-115810455D01*
X107821747Y-115966605D01*
X108054120Y-116044900D01*
X108174163Y-116085348D01*
X108239684Y-116099770D01*
X108537354Y-116165292D01*
X108851632Y-116199472D01*
X108907057Y-116205500D01*
X108907058Y-116205500D01*
X109278942Y-116205500D01*
X109278943Y-116205500D01*
X109311967Y-116201908D01*
X109648646Y-116165292D01*
X110011836Y-116085348D01*
X110364253Y-115966605D01*
X110701766Y-115810455D01*
X111020418Y-115618728D01*
X111316472Y-115393674D01*
X111586458Y-115137929D01*
X111827211Y-114854493D01*
X112035908Y-114546689D01*
X112037558Y-114543576D01*
X112210101Y-114218126D01*
X112347751Y-113872652D01*
X112447239Y-113514323D01*
X112447452Y-113513026D01*
X112507404Y-113147339D01*
X112527537Y-112776000D01*
X112507404Y-112404661D01*
X112447239Y-112037676D01*
X112447238Y-112037675D01*
X112347751Y-111679347D01*
X112210101Y-111333873D01*
X112035907Y-111005308D01*
X111827213Y-110697510D01*
X111827211Y-110697507D01*
X111721371Y-110572903D01*
X111586457Y-110414069D01*
X111316473Y-110158326D01*
X111020417Y-109933271D01*
X110701763Y-109741543D01*
X110364256Y-109585396D01*
X110011836Y-109466651D01*
X109714166Y-109401130D01*
X109648646Y-109386708D01*
X109463794Y-109366604D01*
X109278943Y-109346500D01*
X109278942Y-109346500D01*
X108907058Y-109346500D01*
X108907057Y-109346500D01*
X108537354Y-109386708D01*
X108174163Y-109466651D01*
X107821743Y-109585396D01*
X107484236Y-109741543D01*
X107165582Y-109933271D01*
X106869526Y-110158326D01*
X106599542Y-110414069D01*
X106358786Y-110697510D01*
X106150092Y-111005308D01*
X105975898Y-111333873D01*
X105838248Y-111679347D01*
X105738760Y-112037676D01*
X105678596Y-112404657D01*
X105658462Y-112775999D01*
X96774500Y-112775999D01*
X96774500Y-97814760D01*
X96774528Y-97814616D01*
X96774524Y-97814616D01*
X96774539Y-97790002D01*
X96774541Y-97790000D01*
X96774461Y-97789808D01*
X96774384Y-97789618D01*
X96774380Y-97789614D01*
X96774194Y-97789538D01*
X96774002Y-97789459D01*
X96749446Y-97789459D01*
X96749240Y-97789500D01*
X73938760Y-97789500D01*
X73938554Y-97789459D01*
X73913998Y-97789459D01*
X73913807Y-97789538D01*
X73913619Y-97789615D01*
X73913615Y-97789618D01*
X73913459Y-97789999D01*
X73913476Y-97814616D01*
X73913471Y-97814616D01*
X73913500Y-97814760D01*
X73913500Y-120625240D01*
X73913459Y-120625446D01*
X73913459Y-120650000D01*
X69088708Y-120650000D01*
X67092819Y-118654111D01*
X67065939Y-118613883D01*
X67056500Y-118566430D01*
X67056500Y-97400430D01*
X67072095Y-97340227D01*
X67114958Y-97295167D01*
X67174308Y-97276585D01*
X69592904Y-97155655D01*
X69599096Y-97155500D01*
X69775729Y-97155500D01*
X69775732Y-97155500D01*
X70133228Y-97117925D01*
X70484838Y-97043188D01*
X70826709Y-96932108D01*
X71155097Y-96785900D01*
X71466403Y-96606167D01*
X71757216Y-96394879D01*
X72024350Y-96154350D01*
X72264879Y-95887216D01*
X72476167Y-95596403D01*
X72655900Y-95285097D01*
X72802108Y-94956709D01*
X72913188Y-94614838D01*
X72987925Y-94263228D01*
X73025500Y-93905732D01*
X73025500Y-93546268D01*
X72987925Y-93188772D01*
X72913188Y-92837162D01*
X72810703Y-92521744D01*
X72802110Y-92495296D01*
X72784908Y-92456659D01*
X72655900Y-92166903D01*
X72476167Y-91855597D01*
X72473528Y-91851965D01*
X72264880Y-91564785D01*
X72024350Y-91297649D01*
X71757214Y-91057119D01*
X71466404Y-90845833D01*
X71175707Y-90677999D01*
X120506540Y-90677999D01*
X120526326Y-90866257D01*
X120584820Y-91046284D01*
X120679466Y-91210216D01*
X120806129Y-91350889D01*
X120959269Y-91462151D01*
X121132197Y-91539144D01*
X121317352Y-91578500D01*
X121317354Y-91578500D01*
X121506646Y-91578500D01*
X121506648Y-91578500D01*
X121630084Y-91552262D01*
X121691803Y-91539144D01*
X121864730Y-91462151D01*
X122017871Y-91350888D01*
X122023598Y-91344526D01*
X122065312Y-91314220D01*
X122115747Y-91303500D01*
X145713256Y-91303500D01*
X145733762Y-91305764D01*
X145736665Y-91305672D01*
X145736667Y-91305673D01*
X145803872Y-91303561D01*
X145807768Y-91303500D01*
X145835349Y-91303500D01*
X145835350Y-91303500D01*
X145839319Y-91302998D01*
X145850965Y-91302080D01*
X145894627Y-91300709D01*
X145913859Y-91295120D01*
X145932918Y-91291174D01*
X145939196Y-91290381D01*
X145952792Y-91288664D01*
X145993407Y-91272582D01*
X146004444Y-91268803D01*
X146046390Y-91256618D01*
X146063629Y-91246422D01*
X146081102Y-91237862D01*
X146099732Y-91230486D01*
X146135064Y-91204814D01*
X146144830Y-91198400D01*
X146182418Y-91176171D01*
X146182417Y-91176171D01*
X146182420Y-91176170D01*
X146196585Y-91162004D01*
X146211373Y-91149373D01*
X146227587Y-91137594D01*
X146255438Y-91103926D01*
X146263279Y-91095309D01*
X151386789Y-85971800D01*
X151402885Y-85958906D01*
X151404873Y-85956787D01*
X151404877Y-85956786D01*
X151450948Y-85907723D01*
X151453566Y-85905023D01*
X151473120Y-85885471D01*
X151475581Y-85882298D01*
X151483156Y-85873427D01*
X151513062Y-85841582D01*
X151522712Y-85824027D01*
X151533400Y-85807757D01*
X151545671Y-85791938D01*
X151545673Y-85791936D01*
X151563026Y-85751832D01*
X151568157Y-85741362D01*
X151589197Y-85703092D01*
X151594175Y-85683699D01*
X151600481Y-85665282D01*
X151602018Y-85661728D01*
X151608438Y-85646896D01*
X151615272Y-85603745D01*
X151617635Y-85592331D01*
X151628500Y-85550019D01*
X151628500Y-85529984D01*
X151630027Y-85510585D01*
X151631403Y-85501897D01*
X151633160Y-85490804D01*
X151629050Y-85447325D01*
X151628500Y-85435656D01*
X151628500Y-76129452D01*
X151637939Y-76081999D01*
X151664819Y-76041771D01*
X155014772Y-72691819D01*
X155055000Y-72664939D01*
X155102453Y-72655500D01*
X155161648Y-72655500D01*
X155302866Y-72625483D01*
X155346803Y-72616144D01*
X155519730Y-72539151D01*
X155672871Y-72427888D01*
X155799533Y-72287216D01*
X155894179Y-72123284D01*
X155952674Y-71943256D01*
X155972460Y-71755000D01*
X155952674Y-71566744D01*
X155894179Y-71386716D01*
X155894179Y-71386715D01*
X155799533Y-71222783D01*
X155672870Y-71082110D01*
X155519730Y-70970848D01*
X155346802Y-70893855D01*
X155161648Y-70854500D01*
X155161646Y-70854500D01*
X154972354Y-70854500D01*
X154972352Y-70854500D01*
X154787197Y-70893855D01*
X154614269Y-70970848D01*
X154461129Y-71082110D01*
X154334466Y-71222783D01*
X154239820Y-71386715D01*
X154181326Y-71566742D01*
X154163678Y-71734651D01*
X154152277Y-71775073D01*
X154128038Y-71809370D01*
X150619208Y-75318199D01*
X150603110Y-75331096D01*
X150555096Y-75382225D01*
X150552391Y-75385017D01*
X150532874Y-75404534D01*
X150530415Y-75407705D01*
X150522842Y-75416572D01*
X150492935Y-75448420D01*
X150483285Y-75465974D01*
X150472609Y-75482228D01*
X150460326Y-75498063D01*
X150442975Y-75538158D01*
X150437838Y-75548644D01*
X150416802Y-75586907D01*
X150411821Y-75606309D01*
X150405520Y-75624711D01*
X150397561Y-75643102D01*
X150390728Y-75686242D01*
X150388360Y-75697674D01*
X150377500Y-75739978D01*
X150377500Y-75760016D01*
X150375973Y-75779415D01*
X150372840Y-75799194D01*
X150376950Y-75842675D01*
X150377500Y-75854344D01*
X150377500Y-85160548D01*
X150368061Y-85208001D01*
X150341181Y-85248229D01*
X145573228Y-90016181D01*
X145533000Y-90043061D01*
X145485547Y-90052500D01*
X122115747Y-90052500D01*
X122065312Y-90041780D01*
X122023598Y-90011473D01*
X122017871Y-90005112D01*
X121864730Y-89893849D01*
X121855053Y-89886818D01*
X121815740Y-89839296D01*
X121804184Y-89778714D01*
X121823242Y-89720057D01*
X121868202Y-89677838D01*
X121927939Y-89662500D01*
X144247240Y-89662500D01*
X144247383Y-89662528D01*
X144247384Y-89662524D01*
X144271997Y-89662539D01*
X144272000Y-89662541D01*
X144272383Y-89662383D01*
X144272500Y-89662099D01*
X144272541Y-89662000D01*
X144272541Y-89637446D01*
X144272500Y-89637240D01*
X144272500Y-66826760D01*
X144272528Y-66826616D01*
X144272524Y-66826616D01*
X144272539Y-66802002D01*
X144272541Y-66802000D01*
X144272461Y-66801808D01*
X144272384Y-66801618D01*
X144272380Y-66801614D01*
X144272194Y-66801538D01*
X144272002Y-66801459D01*
X144247446Y-66801459D01*
X144247240Y-66801500D01*
X121436760Y-66801500D01*
X121436554Y-66801459D01*
X121411998Y-66801459D01*
X121411807Y-66801538D01*
X121411619Y-66801615D01*
X121411615Y-66801618D01*
X121411459Y-66801999D01*
X121411476Y-66826616D01*
X121411471Y-66826616D01*
X121411500Y-66826760D01*
X121411500Y-89637240D01*
X121411459Y-89637446D01*
X121411459Y-89657084D01*
X121398909Y-89711442D01*
X121363801Y-89754797D01*
X121313240Y-89778374D01*
X121132197Y-89816855D01*
X120959269Y-89893848D01*
X120806129Y-90005110D01*
X120679466Y-90145783D01*
X120584820Y-90309715D01*
X120526326Y-90489742D01*
X120506540Y-90677999D01*
X71175707Y-90677999D01*
X71155102Y-90666103D01*
X71155097Y-90666100D01*
X70879929Y-90543587D01*
X70826703Y-90519889D01*
X70484836Y-90408811D01*
X70133234Y-90334076D01*
X70133231Y-90334075D01*
X70133228Y-90334075D01*
X69775732Y-90296500D01*
X69775729Y-90296500D01*
X69599096Y-90296500D01*
X69592904Y-90296345D01*
X67174308Y-90175415D01*
X67114958Y-90156833D01*
X67072095Y-90111773D01*
X67056500Y-90051570D01*
X67056500Y-89662000D01*
X73913459Y-89662000D01*
X73913500Y-89662099D01*
X73913617Y-89662382D01*
X73913617Y-89662383D01*
X73913618Y-89662384D01*
X73913808Y-89662461D01*
X73914000Y-89662541D01*
X73914002Y-89662539D01*
X73938616Y-89662524D01*
X73938616Y-89662528D01*
X73938760Y-89662500D01*
X96749240Y-89662500D01*
X96749383Y-89662528D01*
X96749384Y-89662524D01*
X96773997Y-89662539D01*
X96774000Y-89662541D01*
X96774383Y-89662383D01*
X96774500Y-89662099D01*
X96774541Y-89662000D01*
X96774541Y-89637446D01*
X96774500Y-89637240D01*
X96774500Y-81788000D01*
X105658462Y-81788000D01*
X105678596Y-82159342D01*
X105738760Y-82526323D01*
X105838248Y-82884652D01*
X105975898Y-83230126D01*
X106150092Y-83558691D01*
X106358786Y-83866489D01*
X106599542Y-84149930D01*
X106869526Y-84405673D01*
X107159010Y-84625732D01*
X107165582Y-84630728D01*
X107484234Y-84822455D01*
X107821747Y-84978605D01*
X108054120Y-85056900D01*
X108174163Y-85097348D01*
X108239684Y-85111770D01*
X108537354Y-85177292D01*
X108870793Y-85213555D01*
X108907057Y-85217500D01*
X108907058Y-85217500D01*
X109278942Y-85217500D01*
X109278943Y-85217500D01*
X109311967Y-85213908D01*
X109648646Y-85177292D01*
X110011836Y-85097348D01*
X110364253Y-84978605D01*
X110701766Y-84822455D01*
X111020418Y-84630728D01*
X111316472Y-84405674D01*
X111586458Y-84149929D01*
X111827211Y-83866493D01*
X112035908Y-83558689D01*
X112037558Y-83555576D01*
X112210101Y-83230126D01*
X112347751Y-82884652D01*
X112447239Y-82526323D01*
X112447452Y-82525026D01*
X112507404Y-82159339D01*
X112527537Y-81788000D01*
X112507404Y-81416661D01*
X112447239Y-81049676D01*
X112407903Y-80908000D01*
X112347751Y-80691347D01*
X112210101Y-80345873D01*
X112035907Y-80017308D01*
X111827213Y-79709510D01*
X111827211Y-79709507D01*
X111721371Y-79584903D01*
X111586457Y-79426069D01*
X111316473Y-79170326D01*
X111020417Y-78945271D01*
X110701763Y-78753543D01*
X110364256Y-78597396D01*
X110011836Y-78478651D01*
X109714166Y-78413130D01*
X109648646Y-78398708D01*
X109463793Y-78378603D01*
X109278943Y-78358500D01*
X109278942Y-78358500D01*
X108907058Y-78358500D01*
X108907057Y-78358500D01*
X108537354Y-78398708D01*
X108174163Y-78478651D01*
X107821743Y-78597396D01*
X107484236Y-78753543D01*
X107165582Y-78945271D01*
X106869526Y-79170326D01*
X106599542Y-79426069D01*
X106358786Y-79709510D01*
X106150092Y-80017308D01*
X105975898Y-80345873D01*
X105838248Y-80691347D01*
X105738760Y-81049676D01*
X105678596Y-81416657D01*
X105658462Y-81788000D01*
X96774500Y-81788000D01*
X96774500Y-76454000D01*
X106290699Y-76454000D01*
X106309865Y-76685299D01*
X106309865Y-76685301D01*
X106309866Y-76685305D01*
X106366843Y-76910300D01*
X106460076Y-77122849D01*
X106587021Y-77317153D01*
X106744216Y-77487913D01*
X106927374Y-77630470D01*
X107131497Y-77740936D01*
X107241257Y-77778616D01*
X107351015Y-77816297D01*
X107351017Y-77816297D01*
X107351019Y-77816298D01*
X107579951Y-77854500D01*
X107812048Y-77854500D01*
X107812049Y-77854500D01*
X108040981Y-77816298D01*
X108260503Y-77740936D01*
X108464626Y-77630470D01*
X108647784Y-77487913D01*
X108656132Y-77478843D01*
X108708754Y-77444989D01*
X108771209Y-77441140D01*
X108827592Y-77468277D01*
X108863544Y-77519491D01*
X108892204Y-77596331D01*
X108978454Y-77711546D01*
X109093669Y-77797796D01*
X109228517Y-77848091D01*
X109288127Y-77854500D01*
X111183872Y-77854499D01*
X111243483Y-77848091D01*
X111378331Y-77797796D01*
X111493546Y-77711546D01*
X111579796Y-77596331D01*
X111630091Y-77461483D01*
X111636500Y-77401873D01*
X111636499Y-75506128D01*
X111630091Y-75446517D01*
X111579796Y-75311669D01*
X111493546Y-75196454D01*
X111378331Y-75110204D01*
X111243483Y-75059909D01*
X111183873Y-75053500D01*
X111183869Y-75053500D01*
X109288130Y-75053500D01*
X109228515Y-75059909D01*
X109143275Y-75091702D01*
X109093669Y-75110204D01*
X108978454Y-75196454D01*
X108892204Y-75311669D01*
X108865363Y-75383635D01*
X108863545Y-75388508D01*
X108827593Y-75439721D01*
X108771211Y-75466859D01*
X108708757Y-75463011D01*
X108656133Y-75429157D01*
X108647784Y-75420087D01*
X108464627Y-75277531D01*
X108464626Y-75277530D01*
X108260503Y-75167064D01*
X108260499Y-75167062D01*
X108260498Y-75167062D01*
X108040984Y-75091702D01*
X107850456Y-75059909D01*
X107812049Y-75053500D01*
X107579951Y-75053500D01*
X107541544Y-75059909D01*
X107351015Y-75091702D01*
X107131501Y-75167062D01*
X106927372Y-75277531D01*
X106744215Y-75420087D01*
X106587020Y-75590848D01*
X106460076Y-75785150D01*
X106366844Y-75997696D01*
X106309865Y-76222700D01*
X106290699Y-76454000D01*
X96774500Y-76454000D01*
X96774500Y-66826760D01*
X96774528Y-66826616D01*
X96774524Y-66826616D01*
X96774539Y-66802002D01*
X96774541Y-66802000D01*
X96774461Y-66801808D01*
X96774384Y-66801618D01*
X96774380Y-66801614D01*
X96774194Y-66801538D01*
X96774002Y-66801459D01*
X96749446Y-66801459D01*
X96749240Y-66801500D01*
X73938760Y-66801500D01*
X73938554Y-66801459D01*
X73913998Y-66801459D01*
X73913807Y-66801538D01*
X73913619Y-66801615D01*
X73913615Y-66801618D01*
X73913459Y-66801999D01*
X73913476Y-66826616D01*
X73913471Y-66826616D01*
X73913500Y-66826760D01*
X73913500Y-89637240D01*
X73913459Y-89637446D01*
X73913459Y-89662000D01*
X67056500Y-89662000D01*
X67056500Y-68885570D01*
X67065939Y-68838117D01*
X67092819Y-68797889D01*
X75909888Y-59980819D01*
X75950116Y-59953939D01*
X75997569Y-59944500D01*
X94690430Y-59944500D01*
X94737883Y-59953939D01*
G37*
%TD.AperFunction*%
%TA.AperFunction,Conductor*%
G36*
X158479385Y-90009143D02*
G01*
X158516985Y-90053166D01*
X158530500Y-90109461D01*
X158530500Y-96174547D01*
X158522264Y-96218985D01*
X158498650Y-96257519D01*
X158461150Y-96299167D01*
X158403179Y-96335391D01*
X158334821Y-96335391D01*
X158276850Y-96299167D01*
X158239350Y-96257519D01*
X158215736Y-96218985D01*
X158207500Y-96174547D01*
X158207500Y-90184461D01*
X158216939Y-90137008D01*
X158243819Y-90096780D01*
X158318819Y-90021780D01*
X158368182Y-89991530D01*
X158425898Y-89986988D01*
X158479385Y-90009143D01*
G37*
%TD.AperFunction*%
%TD*%
%TA.AperFunction,Conductor*%
%TO.N,GND*%
G36*
X177746268Y-122246206D02*
G01*
X177785389Y-122290579D01*
X177799500Y-122348028D01*
X177799500Y-127383500D01*
X177782887Y-127445500D01*
X177737500Y-127490887D01*
X177675500Y-127507500D01*
X175384500Y-127507500D01*
X175322500Y-127490887D01*
X175277113Y-127445500D01*
X175260500Y-127383500D01*
X175260500Y-126516760D01*
X175260528Y-126516616D01*
X175260524Y-126516616D01*
X175260556Y-126468926D01*
X175260000Y-126466115D01*
X175260000Y-125170638D01*
X175263970Y-125170638D01*
X175265585Y-125131439D01*
X175303246Y-125075460D01*
X175364642Y-125047486D01*
X175386945Y-125044069D01*
X175577664Y-124973435D01*
X175750263Y-124865854D01*
X175897669Y-124725733D01*
X176013855Y-124558805D01*
X176094059Y-124371907D01*
X176135000Y-124172689D01*
X176135000Y-123771000D01*
X175009000Y-123771000D01*
X174947000Y-123754387D01*
X174901613Y-123709000D01*
X174885000Y-123647000D01*
X174885000Y-123395000D01*
X174901613Y-123333000D01*
X174947000Y-123287613D01*
X175009000Y-123271000D01*
X176135000Y-123271000D01*
X176135000Y-122920290D01*
X176119580Y-122768660D01*
X176058697Y-122574612D01*
X176003784Y-122475678D01*
X175988213Y-122413929D01*
X176005343Y-122352595D01*
X176050657Y-122307852D01*
X176112203Y-122291500D01*
X176207253Y-122291500D01*
X176257688Y-122302220D01*
X176299401Y-122332526D01*
X176305129Y-122338888D01*
X176458270Y-122450151D01*
X176458271Y-122450151D01*
X176458272Y-122450152D01*
X176631197Y-122527144D01*
X176816352Y-122566500D01*
X176816354Y-122566500D01*
X177005646Y-122566500D01*
X177005648Y-122566500D01*
X177129084Y-122540262D01*
X177190803Y-122527144D01*
X177363730Y-122450151D01*
X177424814Y-122405771D01*
X177516870Y-122338889D01*
X177526839Y-122327818D01*
X177551041Y-122300939D01*
X177583350Y-122265056D01*
X177632277Y-122231805D01*
X177691041Y-122225006D01*
X177746268Y-122246206D01*
G37*
%TD.AperFunction*%
%TA.AperFunction,Conductor*%
G36*
X175236926Y-117602556D02*
G01*
X175259998Y-117602540D01*
X175260000Y-117602541D01*
X175260001Y-117602540D01*
X175284616Y-117602524D01*
X175284616Y-117602528D01*
X175284760Y-117602500D01*
X177675500Y-117602500D01*
X177737500Y-117619113D01*
X177782887Y-117664500D01*
X177799500Y-117726500D01*
X177799500Y-120983972D01*
X177785389Y-121041421D01*
X177746268Y-121085794D01*
X177691041Y-121106994D01*
X177632277Y-121100195D01*
X177583350Y-121066944D01*
X177516870Y-120993110D01*
X177363730Y-120881848D01*
X177190802Y-120804855D01*
X177005648Y-120765500D01*
X177005646Y-120765500D01*
X176816354Y-120765500D01*
X176816352Y-120765500D01*
X176631197Y-120804855D01*
X176458272Y-120881847D01*
X176356176Y-120956024D01*
X176305129Y-120993112D01*
X176299401Y-120999473D01*
X176257688Y-121029780D01*
X176207253Y-121040500D01*
X172802744Y-121040500D01*
X172782237Y-121038235D01*
X172712127Y-121040439D01*
X172708232Y-121040500D01*
X172680650Y-121040500D01*
X172676665Y-121041003D01*
X172665033Y-121041918D01*
X172621369Y-121043290D01*
X172602129Y-121048880D01*
X172583081Y-121052825D01*
X172563209Y-121055335D01*
X172522599Y-121071413D01*
X172511554Y-121075194D01*
X172469610Y-121087381D01*
X172452365Y-121097579D01*
X172434904Y-121106133D01*
X172416267Y-121113512D01*
X172380931Y-121139185D01*
X172371174Y-121145595D01*
X172333580Y-121167829D01*
X172319413Y-121181996D01*
X172304624Y-121194626D01*
X172288413Y-121206404D01*
X172260572Y-121240058D01*
X172252711Y-121248697D01*
X171756228Y-121745181D01*
X171716000Y-121772061D01*
X171668547Y-121781500D01*
X171609352Y-121781500D01*
X171424197Y-121820855D01*
X171251269Y-121897848D01*
X171098129Y-122009110D01*
X170971466Y-122149783D01*
X170876820Y-122313715D01*
X170818326Y-122493742D01*
X170798540Y-122681999D01*
X170798540Y-122682000D01*
X170801564Y-122710768D01*
X170818326Y-122870257D01*
X170876820Y-123050284D01*
X170971466Y-123214216D01*
X171098129Y-123354889D01*
X171251269Y-123466151D01*
X171424197Y-123543144D01*
X171609352Y-123582500D01*
X171609354Y-123582500D01*
X171798646Y-123582500D01*
X171798648Y-123582500D01*
X171922084Y-123556262D01*
X171983803Y-123543144D01*
X172156730Y-123466151D01*
X172156730Y-123466150D01*
X172309870Y-123354889D01*
X172436533Y-123214216D01*
X172531179Y-123050284D01*
X172548771Y-122996142D01*
X172589674Y-122870256D01*
X172607322Y-122702341D01*
X172618720Y-122661927D01*
X172642954Y-122627635D01*
X172942774Y-122327816D01*
X172983000Y-122300939D01*
X173030453Y-122291500D01*
X173318984Y-122291500D01*
X173378152Y-122306527D01*
X173422979Y-122347965D01*
X173442602Y-122405771D01*
X173432264Y-122465935D01*
X173394471Y-122513876D01*
X173294549Y-122590549D01*
X173202301Y-122710768D01*
X173144312Y-122850764D01*
X173124533Y-123001000D01*
X173144312Y-123151235D01*
X173202301Y-123291231D01*
X173202302Y-123291233D01*
X173294549Y-123411451D01*
X173414767Y-123503698D01*
X173474118Y-123528282D01*
X173554764Y-123561687D01*
X173667279Y-123576500D01*
X173667280Y-123576500D01*
X173742720Y-123576500D01*
X173742721Y-123576500D01*
X173798978Y-123569093D01*
X173855236Y-123561687D01*
X173963546Y-123516823D01*
X174023154Y-123507981D01*
X174079891Y-123528282D01*
X174120358Y-123572931D01*
X174135000Y-123631384D01*
X174135000Y-124121710D01*
X174150419Y-124273339D01*
X174211303Y-124467389D01*
X174310003Y-124645214D01*
X174442479Y-124799531D01*
X174603307Y-124924021D01*
X174731031Y-124986672D01*
X174780304Y-125030289D01*
X174800321Y-125092974D01*
X174785446Y-125157075D01*
X174739868Y-125204540D01*
X174676423Y-125222000D01*
X173990000Y-125222000D01*
X173990000Y-126466115D01*
X173989443Y-126468926D01*
X173989476Y-126516616D01*
X173989471Y-126516616D01*
X173989500Y-126516760D01*
X173989500Y-127383500D01*
X173972887Y-127445500D01*
X173927500Y-127490887D01*
X173865500Y-127507500D01*
X167764500Y-127507500D01*
X167702500Y-127490887D01*
X167657113Y-127445500D01*
X167640500Y-127383500D01*
X167640500Y-126516760D01*
X167640528Y-126516616D01*
X167640524Y-126516616D01*
X167640556Y-126468926D01*
X167640000Y-126466115D01*
X167640000Y-125222000D01*
X166958364Y-125222000D01*
X166892772Y-125203232D01*
X166847036Y-125152609D01*
X166835000Y-125085455D01*
X166860308Y-125022099D01*
X166915298Y-124981719D01*
X166937664Y-124973435D01*
X167110263Y-124865854D01*
X167257669Y-124725733D01*
X167373855Y-124558805D01*
X167454059Y-124371907D01*
X167495000Y-124172689D01*
X167495000Y-123631384D01*
X167509642Y-123572931D01*
X167550109Y-123528282D01*
X167606846Y-123507981D01*
X167666453Y-123516823D01*
X167774764Y-123561687D01*
X167887279Y-123576500D01*
X167887280Y-123576500D01*
X167962720Y-123576500D01*
X167962721Y-123576500D01*
X168018978Y-123569093D01*
X168075236Y-123561687D01*
X168215233Y-123503698D01*
X168335451Y-123411451D01*
X168427698Y-123291233D01*
X168485687Y-123151236D01*
X168491933Y-123103785D01*
X168514553Y-123047087D01*
X168561488Y-123008052D01*
X168621361Y-122996142D01*
X168679662Y-123014244D01*
X168722259Y-123057972D01*
X168812466Y-123214216D01*
X168939129Y-123354889D01*
X169092269Y-123466151D01*
X169265197Y-123543144D01*
X169450352Y-123582500D01*
X169450354Y-123582500D01*
X169639646Y-123582500D01*
X169639648Y-123582500D01*
X169763084Y-123556262D01*
X169824803Y-123543144D01*
X169997730Y-123466151D01*
X169997730Y-123466150D01*
X170150870Y-123354889D01*
X170277533Y-123214216D01*
X170372179Y-123050284D01*
X170389771Y-122996142D01*
X170430674Y-122870256D01*
X170450460Y-122682000D01*
X170430674Y-122493744D01*
X170400332Y-122400363D01*
X170372179Y-122313715D01*
X170277533Y-122149783D01*
X170150870Y-122009110D01*
X169997730Y-121897848D01*
X169824802Y-121820855D01*
X169639648Y-121781500D01*
X169639646Y-121781500D01*
X169580452Y-121781500D01*
X169532999Y-121772061D01*
X169492771Y-121745181D01*
X169261737Y-121514147D01*
X169029802Y-121282211D01*
X169016906Y-121266113D01*
X168965775Y-121218098D01*
X168962978Y-121215387D01*
X168943470Y-121195879D01*
X168940290Y-121193412D01*
X168931424Y-121185839D01*
X168899582Y-121155938D01*
X168882024Y-121146285D01*
X168865764Y-121135604D01*
X168849936Y-121123327D01*
X168809851Y-121105980D01*
X168799361Y-121100841D01*
X168761091Y-121079802D01*
X168741691Y-121074821D01*
X168723284Y-121068519D01*
X168704897Y-121060562D01*
X168661758Y-121053729D01*
X168650324Y-121051361D01*
X168608019Y-121040500D01*
X168587984Y-121040500D01*
X168568586Y-121038973D01*
X168561162Y-121037797D01*
X168548805Y-121035840D01*
X168548804Y-121035840D01*
X168523468Y-121038235D01*
X168505325Y-121039950D01*
X168493656Y-121040500D01*
X165295747Y-121040500D01*
X165245312Y-121029780D01*
X165203598Y-120999473D01*
X165197871Y-120993112D01*
X165044730Y-120881849D01*
X165044729Y-120881848D01*
X165044727Y-120881847D01*
X164871802Y-120804855D01*
X164686648Y-120765500D01*
X164686646Y-120765500D01*
X164497354Y-120765500D01*
X164497352Y-120765500D01*
X164312197Y-120804855D01*
X164139269Y-120881848D01*
X164027385Y-120963137D01*
X163964229Y-120986437D01*
X163898205Y-120973304D01*
X163848773Y-120927609D01*
X163830500Y-120862819D01*
X163830500Y-119571000D01*
X165495000Y-119571000D01*
X165495000Y-119771710D01*
X165510419Y-119923339D01*
X165571303Y-120117389D01*
X165670003Y-120295214D01*
X165802479Y-120449531D01*
X165963307Y-120574021D01*
X166145905Y-120663589D01*
X166244999Y-120689246D01*
X166245000Y-120689246D01*
X166245000Y-119571000D01*
X166745000Y-119571000D01*
X166745000Y-120694366D01*
X166746948Y-120694067D01*
X166937663Y-120623435D01*
X167110263Y-120515854D01*
X167257669Y-120375733D01*
X167373855Y-120208805D01*
X167454059Y-120021907D01*
X167495000Y-119822689D01*
X167495000Y-119571000D01*
X174135000Y-119571000D01*
X174135000Y-119771710D01*
X174150419Y-119923339D01*
X174211303Y-120117389D01*
X174310003Y-120295214D01*
X174442479Y-120449531D01*
X174603307Y-120574021D01*
X174785905Y-120663589D01*
X174884999Y-120689246D01*
X174885000Y-120689247D01*
X174885000Y-119571000D01*
X175385000Y-119571000D01*
X175385000Y-120694366D01*
X175386948Y-120694067D01*
X175577663Y-120623435D01*
X175750263Y-120515854D01*
X175897669Y-120375733D01*
X176013855Y-120208805D01*
X176094059Y-120021907D01*
X176135000Y-119822689D01*
X176135000Y-119571000D01*
X175385000Y-119571000D01*
X174885000Y-119571000D01*
X174135000Y-119571000D01*
X167495000Y-119571000D01*
X166745000Y-119571000D01*
X166245000Y-119571000D01*
X165495000Y-119571000D01*
X163830500Y-119571000D01*
X163830500Y-119071000D01*
X165495000Y-119071000D01*
X166245000Y-119071000D01*
X166245000Y-117952753D01*
X166745000Y-117952753D01*
X166745000Y-119071000D01*
X167495000Y-119071000D01*
X174135000Y-119071000D01*
X174885000Y-119071000D01*
X174885000Y-117952753D01*
X175385000Y-117952753D01*
X175385000Y-119071000D01*
X176135000Y-119071000D01*
X176135000Y-118870290D01*
X176119580Y-118718660D01*
X176058696Y-118524610D01*
X175959996Y-118346785D01*
X175827520Y-118192468D01*
X175666692Y-118067978D01*
X175484094Y-117978410D01*
X175385000Y-117952753D01*
X174885000Y-117952753D01*
X174885000Y-117947634D01*
X174883051Y-117947932D01*
X174692336Y-118018564D01*
X174519736Y-118126145D01*
X174372330Y-118266266D01*
X174256144Y-118433194D01*
X174175940Y-118620092D01*
X174135000Y-118819311D01*
X174135000Y-119071000D01*
X167495000Y-119071000D01*
X167495000Y-118870290D01*
X167479580Y-118718660D01*
X167418696Y-118524610D01*
X167319996Y-118346785D01*
X167187520Y-118192468D01*
X167026692Y-118067978D01*
X166844094Y-117978410D01*
X166745000Y-117952753D01*
X166245000Y-117952753D01*
X166245000Y-117947634D01*
X166243051Y-117947932D01*
X166052336Y-118018564D01*
X165879736Y-118126145D01*
X165732330Y-118266266D01*
X165616144Y-118433194D01*
X165535940Y-118620092D01*
X165495000Y-118819311D01*
X165495000Y-119071000D01*
X163830500Y-119071000D01*
X163830500Y-117726500D01*
X163847113Y-117664500D01*
X163892500Y-117619113D01*
X163954500Y-117602500D01*
X166345240Y-117602500D01*
X166345383Y-117602528D01*
X166345384Y-117602524D01*
X166369998Y-117602540D01*
X166370000Y-117602541D01*
X166370001Y-117602540D01*
X166393073Y-117602556D01*
X166395885Y-117602000D01*
X175234115Y-117602000D01*
X175236926Y-117602556D01*
G37*
%TD.AperFunction*%
%TA.AperFunction,Conductor*%
G36*
X165576435Y-122309445D02*
G01*
X165622090Y-122358087D01*
X165635933Y-122423347D01*
X165619359Y-122470852D01*
X165621117Y-122471607D01*
X165535940Y-122670092D01*
X165495000Y-122869311D01*
X165495000Y-123271000D01*
X166621000Y-123271000D01*
X166683000Y-123287613D01*
X166728387Y-123333000D01*
X166745000Y-123395000D01*
X166745000Y-123647000D01*
X166728387Y-123709000D01*
X166683000Y-123754387D01*
X166621000Y-123771000D01*
X165495000Y-123771000D01*
X165495000Y-124121710D01*
X165510419Y-124273339D01*
X165571303Y-124467389D01*
X165670003Y-124645214D01*
X165802479Y-124799531D01*
X165963307Y-124924021D01*
X166145901Y-125013587D01*
X166279498Y-125048177D01*
X166335537Y-125079979D01*
X166368053Y-125135607D01*
X166368168Y-125170638D01*
X166370000Y-125170638D01*
X166370000Y-126466115D01*
X166369443Y-126468926D01*
X166369476Y-126516616D01*
X166369471Y-126516616D01*
X166369500Y-126516760D01*
X166369500Y-127383500D01*
X166352887Y-127445500D01*
X166307500Y-127490887D01*
X166245500Y-127507500D01*
X163954500Y-127507500D01*
X163892500Y-127490887D01*
X163847113Y-127445500D01*
X163830500Y-127383500D01*
X163830500Y-122469181D01*
X163848773Y-122404391D01*
X163898205Y-122358696D01*
X163964229Y-122345563D01*
X164027385Y-122368863D01*
X164139269Y-122450151D01*
X164312197Y-122527144D01*
X164497352Y-122566500D01*
X164497354Y-122566500D01*
X164686646Y-122566500D01*
X164686648Y-122566500D01*
X164810084Y-122540262D01*
X164871803Y-122527144D01*
X165044730Y-122450151D01*
X165197871Y-122338888D01*
X165203598Y-122332526D01*
X165245312Y-122302220D01*
X165295747Y-122291500D01*
X165512182Y-122291500D01*
X165576435Y-122309445D01*
G37*
%TD.AperFunction*%
%TD*%
%TA.AperFunction,Conductor*%
%TO.N,USB5V*%
G36*
X156402000Y-96917613D02*
G01*
X156447387Y-96963000D01*
X156464000Y-97025000D01*
X156464000Y-97665500D01*
X156447387Y-97727500D01*
X156402000Y-97772887D01*
X156340000Y-97789500D01*
X155191000Y-97789500D01*
X155129000Y-97772887D01*
X155083613Y-97727500D01*
X155067000Y-97665500D01*
X155067000Y-97025000D01*
X155083613Y-96963000D01*
X155129000Y-96917613D01*
X155191000Y-96901000D01*
X156340000Y-96901000D01*
X156402000Y-96917613D01*
G37*
%TD.AperFunction*%
%TD*%
%TA.AperFunction,Conductor*%
%TO.N,USB5V*%
G36*
X161609000Y-96917613D02*
G01*
X161654387Y-96963000D01*
X161671000Y-97025000D01*
X161671000Y-97665500D01*
X161654387Y-97727500D01*
X161609000Y-97772887D01*
X161547000Y-97789500D01*
X160398000Y-97789500D01*
X160336000Y-97772887D01*
X160290613Y-97727500D01*
X160274000Y-97665500D01*
X160274000Y-97025000D01*
X160290613Y-96963000D01*
X160336000Y-96917613D01*
X160398000Y-96901000D01*
X161547000Y-96901000D01*
X161609000Y-96917613D01*
G37*
%TD.AperFunction*%
%TD*%
%TA.AperFunction,Conductor*%
%TO.N,D-*%
G36*
X157926000Y-96917613D02*
G01*
X157971387Y-96963000D01*
X157988000Y-97025000D01*
X157988000Y-97665500D01*
X157971387Y-97727500D01*
X157926000Y-97772887D01*
X157864000Y-97789500D01*
X157350000Y-97789500D01*
X157288000Y-97772887D01*
X157242613Y-97727500D01*
X157226000Y-97665500D01*
X157226000Y-97025000D01*
X157242613Y-96963000D01*
X157288000Y-96917613D01*
X157350000Y-96901000D01*
X157864000Y-96901000D01*
X157926000Y-96917613D01*
G37*
%TD.AperFunction*%
%TD*%
%TA.AperFunction,Conductor*%
%TO.N,D+*%
G36*
X159450000Y-96917613D02*
G01*
X159495387Y-96963000D01*
X159512000Y-97025000D01*
X159512000Y-97665500D01*
X159495387Y-97727500D01*
X159450000Y-97772887D01*
X159388000Y-97789500D01*
X158874000Y-97789500D01*
X158812000Y-97772887D01*
X158766613Y-97727500D01*
X158750000Y-97665500D01*
X158750000Y-97025000D01*
X158766613Y-96963000D01*
X158812000Y-96917613D01*
X158874000Y-96901000D01*
X159388000Y-96901000D01*
X159450000Y-96917613D01*
G37*
%TD.AperFunction*%
%TD*%
M02*
