%TF.GenerationSoftware,KiCad,Pcbnew,7.0.1*%
%TF.CreationDate,2023-07-22T19:51:59+09:00*%
%TF.ProjectId,gaming-clock,67616d69-6e67-42d6-936c-6f636b2e6b69,rev?*%
%TF.SameCoordinates,Original*%
%TF.FileFunction,Paste,Top*%
%TF.FilePolarity,Positive*%
%FSLAX46Y46*%
G04 Gerber Fmt 4.6, Leading zero omitted, Abs format (unit mm)*
G04 Created by KiCad (PCBNEW 7.0.1) date 2023-07-22 19:51:59*
%MOMM*%
%LPD*%
G01*
G04 APERTURE LIST*
G04 Aperture macros list*
%AMRoundRect*
0 Rectangle with rounded corners*
0 $1 Rounding radius*
0 $2 $3 $4 $5 $6 $7 $8 $9 X,Y pos of 4 corners*
0 Add a 4 corners polygon primitive as box body*
4,1,4,$2,$3,$4,$5,$6,$7,$8,$9,$2,$3,0*
0 Add four circle primitives for the rounded corners*
1,1,$1+$1,$2,$3*
1,1,$1+$1,$4,$5*
1,1,$1+$1,$6,$7*
1,1,$1+$1,$8,$9*
0 Add four rect primitives between the rounded corners*
20,1,$1+$1,$2,$3,$4,$5,0*
20,1,$1+$1,$4,$5,$6,$7,0*
20,1,$1+$1,$6,$7,$8,$9,0*
20,1,$1+$1,$8,$9,$2,$3,0*%
G04 Aperture macros list end*
%ADD10RoundRect,0.237500X-0.237500X0.250000X-0.237500X-0.250000X0.237500X-0.250000X0.237500X0.250000X0*%
%ADD11R,0.600000X1.240000*%
%ADD12R,0.300000X1.240000*%
%ADD13RoundRect,0.237500X0.300000X0.237500X-0.300000X0.237500X-0.300000X-0.237500X0.300000X-0.237500X0*%
%ADD14RoundRect,0.237500X0.237500X-0.300000X0.237500X0.300000X-0.237500X0.300000X-0.237500X-0.300000X0*%
%ADD15RoundRect,0.150000X-0.587500X-0.150000X0.587500X-0.150000X0.587500X0.150000X-0.587500X0.150000X0*%
%ADD16R,0.850000X1.600000*%
%ADD17RoundRect,0.237500X-0.237500X0.300000X-0.237500X-0.300000X0.237500X-0.300000X0.237500X0.300000X0*%
%ADD18R,1.600000X0.850000*%
%ADD19RoundRect,0.237500X-0.300000X-0.237500X0.300000X-0.237500X0.300000X0.237500X-0.300000X0.237500X0*%
%ADD20RoundRect,0.250000X0.750000X0.300000X-0.750000X0.300000X-0.750000X-0.300000X0.750000X-0.300000X0*%
%ADD21RoundRect,0.200000X0.200000X0.350000X-0.200000X0.350000X-0.200000X-0.350000X0.200000X-0.350000X0*%
%ADD22RoundRect,0.237500X0.237500X-0.250000X0.237500X0.250000X-0.237500X0.250000X-0.237500X-0.250000X0*%
%ADD23R,2.000000X1.500000*%
%ADD24R,2.000000X3.800000*%
%ADD25R,1.050000X0.650000*%
%ADD26RoundRect,0.237500X0.250000X0.237500X-0.250000X0.237500X-0.250000X-0.237500X0.250000X-0.237500X0*%
%ADD27RoundRect,0.225000X-0.225000X-0.375000X0.225000X-0.375000X0.225000X0.375000X-0.225000X0.375000X0*%
G04 APERTURE END LIST*
D10*
%TO.C,R2*%
X164592000Y-121642500D03*
X164592000Y-123467500D03*
%TD*%
%TO.C,R1*%
X176911000Y-121642500D03*
X176911000Y-123467500D03*
%TD*%
D11*
%TO.C,J1*%
X174015000Y-124121000D03*
X173215000Y-124121000D03*
D12*
X172565000Y-124121000D03*
X171565000Y-124121000D03*
X170065000Y-124121000D03*
X169065000Y-124121000D03*
D11*
X168415000Y-124121000D03*
X167615000Y-124121000D03*
X167615000Y-124121000D03*
X168415000Y-124121000D03*
D12*
X169565000Y-124121000D03*
X170565000Y-124121000D03*
X171065000Y-124121000D03*
X172065000Y-124121000D03*
D11*
X173215000Y-124121000D03*
X174015000Y-124121000D03*
%TD*%
D13*
%TO.C,C501*%
X71220500Y-109500500D03*
X69495500Y-109500500D03*
%TD*%
%TO.C,C302*%
X224396500Y-109220000D03*
X222671500Y-109220000D03*
%TD*%
D14*
%TO.C,C204*%
X256512000Y-64348500D03*
X256512000Y-62623500D03*
%TD*%
D15*
%TO.C,Q2*%
X159463500Y-87442000D03*
X159463500Y-89342000D03*
X161338500Y-88392000D03*
%TD*%
D16*
%TO.C,D401*%
X117108000Y-73759000D03*
X118858000Y-73759000D03*
X118858000Y-70259000D03*
X117108000Y-70259000D03*
%TD*%
%TO.C,D311*%
X193068000Y-117193000D03*
X194818000Y-117193000D03*
X194818000Y-113693000D03*
X193068000Y-113693000D03*
%TD*%
D13*
%TO.C,C507*%
X100938500Y-78512500D03*
X99213500Y-78512500D03*
%TD*%
D16*
%TO.C,D414*%
X146826000Y-117193000D03*
X148576000Y-117193000D03*
X148576000Y-113693000D03*
X146826000Y-113693000D03*
%TD*%
%TO.C,D214*%
X242274000Y-70245000D03*
X240524000Y-70245000D03*
X240524000Y-73745000D03*
X242274000Y-73745000D03*
%TD*%
%TO.C,D301*%
X224536000Y-113693000D03*
X222786000Y-113693000D03*
X222786000Y-117193000D03*
X224536000Y-117193000D03*
%TD*%
D13*
%TO.C,C202*%
X271852500Y-109206000D03*
X270127500Y-109206000D03*
%TD*%
D17*
%TO.C,C504*%
X85090000Y-123116000D03*
X85090000Y-124841000D03*
%TD*%
%TO.C,C505*%
X85344000Y-62664000D03*
X85344000Y-64389000D03*
%TD*%
D18*
%TO.C,D407*%
X124869000Y-123204000D03*
X124869000Y-124954000D03*
X128369000Y-124954000D03*
X128369000Y-123204000D03*
%TD*%
D16*
%TO.C,D501*%
X69610000Y-73785500D03*
X71360000Y-73785500D03*
X71360000Y-70285500D03*
X69610000Y-70285500D03*
%TD*%
%TO.C,D303*%
X222786000Y-86205000D03*
X224536000Y-86205000D03*
X224536000Y-82705000D03*
X222786000Y-82705000D03*
%TD*%
D18*
%TO.C,D409*%
X140815000Y-94601000D03*
X140815000Y-92851000D03*
X137315000Y-92851000D03*
X137315000Y-94601000D03*
%TD*%
D19*
%TO.C,C3*%
X184557500Y-91948000D03*
X186282500Y-91948000D03*
%TD*%
D20*
%TO.C,D6*%
X166228000Y-93218000D03*
D21*
X168128000Y-93218000D03*
%TD*%
D16*
%TO.C,D211*%
X240524000Y-117179000D03*
X242274000Y-117179000D03*
X242274000Y-113679000D03*
X240524000Y-113679000D03*
%TD*%
D22*
%TO.C,R4*%
X163195000Y-90955500D03*
X163195000Y-89130500D03*
%TD*%
D18*
%TO.C,D4*%
X169065000Y-100725000D03*
X169065000Y-102475000D03*
X172565000Y-102475000D03*
X172565000Y-100725000D03*
%TD*%
D16*
%TO.C,D302*%
X224536000Y-101247000D03*
X222786000Y-101247000D03*
X222786000Y-104747000D03*
X224536000Y-104747000D03*
%TD*%
D18*
%TO.C,D408*%
X137315000Y-62498000D03*
X137315000Y-64248000D03*
X140815000Y-64248000D03*
X140815000Y-62498000D03*
%TD*%
D23*
%TO.C,U2*%
X181000000Y-94093000D03*
X181000000Y-96393000D03*
X181000000Y-98693000D03*
D24*
X187300000Y-96393000D03*
%TD*%
D16*
%TO.C,D511*%
X101078000Y-70285500D03*
X99328000Y-70285500D03*
X99328000Y-73785500D03*
X101078000Y-73785500D03*
%TD*%
D13*
%TO.C,C306*%
X194932500Y-78232000D03*
X193207500Y-78232000D03*
%TD*%
D14*
%TO.C,C8*%
X167005000Y-86587500D03*
X167005000Y-84862500D03*
%TD*%
D15*
%TO.C,Q3*%
X159463500Y-91760000D03*
X159463500Y-93660000D03*
X161338500Y-92710000D03*
%TD*%
D19*
%TO.C,C1*%
X181382500Y-102362000D03*
X183107500Y-102362000D03*
%TD*%
D18*
%TO.C,D208*%
X251785000Y-124940000D03*
X251785000Y-123190000D03*
X248285000Y-123190000D03*
X248285000Y-124940000D03*
%TD*%
D25*
%TO.C,SW1*%
X158580000Y-108272000D03*
X162730000Y-108272000D03*
X158580000Y-110422000D03*
X162705000Y-110422000D03*
%TD*%
D18*
%TO.C,D206*%
X260731000Y-92837000D03*
X260731000Y-94587000D03*
X264231000Y-94587000D03*
X264231000Y-92837000D03*
%TD*%
D19*
%TO.C,C406*%
X146711500Y-109220000D03*
X148436500Y-109220000D03*
%TD*%
D16*
%TO.C,D512*%
X101078000Y-82731500D03*
X99328000Y-82731500D03*
X99328000Y-86231500D03*
X101078000Y-86231500D03*
%TD*%
%TO.C,D201*%
X271992000Y-113679000D03*
X270242000Y-113679000D03*
X270242000Y-117179000D03*
X271992000Y-117179000D03*
%TD*%
D19*
%TO.C,C502*%
X69749500Y-78258500D03*
X71474500Y-78258500D03*
%TD*%
D18*
%TO.C,D506*%
X80871000Y-94627500D03*
X80871000Y-92877500D03*
X77371000Y-92877500D03*
X77371000Y-94627500D03*
%TD*%
D26*
%TO.C,R5*%
X181149000Y-87630000D03*
X179324000Y-87630000D03*
%TD*%
D17*
%TO.C,C404*%
X132588000Y-123089500D03*
X132588000Y-124814500D03*
%TD*%
D18*
%TO.C,D308*%
X204329000Y-124954000D03*
X204329000Y-123204000D03*
X200829000Y-123204000D03*
X200829000Y-124954000D03*
%TD*%
D19*
%TO.C,C2*%
X181382500Y-100838000D03*
X183107500Y-100838000D03*
%TD*%
D18*
%TO.C,D307*%
X216775000Y-64248000D03*
X216775000Y-62498000D03*
X213275000Y-62498000D03*
X213275000Y-64248000D03*
%TD*%
%TO.C,D205*%
X264231000Y-124940000D03*
X264231000Y-123190000D03*
X260731000Y-123190000D03*
X260731000Y-124940000D03*
%TD*%
D16*
%TO.C,D403*%
X118858000Y-101247000D03*
X117108000Y-101247000D03*
X117108000Y-104747000D03*
X118858000Y-104747000D03*
%TD*%
D18*
%TO.C,D305*%
X216775000Y-124954000D03*
X216775000Y-123204000D03*
X213275000Y-123204000D03*
X213275000Y-124954000D03*
%TD*%
D16*
%TO.C,D312*%
X193068000Y-104747000D03*
X194818000Y-104747000D03*
X194818000Y-101247000D03*
X193068000Y-101247000D03*
%TD*%
%TO.C,D213*%
X242274000Y-82691000D03*
X240524000Y-82691000D03*
X240524000Y-86191000D03*
X242274000Y-86191000D03*
%TD*%
D14*
%TO.C,C305*%
X208802000Y-124814500D03*
X208802000Y-123089500D03*
%TD*%
D16*
%TO.C,D411*%
X148576000Y-70259000D03*
X146826000Y-70259000D03*
X146826000Y-73759000D03*
X148576000Y-73759000D03*
%TD*%
D18*
%TO.C,D507*%
X77371000Y-123230500D03*
X77371000Y-124980500D03*
X80871000Y-124980500D03*
X80871000Y-123230500D03*
%TD*%
D19*
%TO.C,C301*%
X222925500Y-77978000D03*
X224650500Y-77978000D03*
%TD*%
D16*
%TO.C,D314*%
X194818000Y-70259000D03*
X193068000Y-70259000D03*
X193068000Y-73759000D03*
X194818000Y-73759000D03*
%TD*%
D18*
%TO.C,D510*%
X89817000Y-123230500D03*
X89817000Y-124980500D03*
X93317000Y-124980500D03*
X93317000Y-123230500D03*
%TD*%
%TO.C,D209*%
X248285000Y-92837000D03*
X248285000Y-94587000D03*
X251785000Y-94587000D03*
X251785000Y-92837000D03*
%TD*%
D16*
%TO.C,D1*%
X161713000Y-80123000D03*
X163463000Y-80123000D03*
X163463000Y-76623000D03*
X161713000Y-76623000D03*
%TD*%
D17*
%TO.C,C405*%
X132842000Y-62637500D03*
X132842000Y-64362500D03*
%TD*%
D18*
%TO.C,D210*%
X251785000Y-64234000D03*
X251785000Y-62484000D03*
X248285000Y-62484000D03*
X248285000Y-64234000D03*
%TD*%
%TO.C,D3*%
X172565000Y-86473000D03*
X172565000Y-84723000D03*
X169065000Y-84723000D03*
X169065000Y-86473000D03*
%TD*%
D14*
%TO.C,C7*%
X169545000Y-75157500D03*
X169545000Y-73432500D03*
%TD*%
D25*
%TO.C,SW2*%
X158580000Y-103700000D03*
X162730000Y-103700000D03*
X158580000Y-105850000D03*
X162705000Y-105850000D03*
%TD*%
D14*
%TO.C,C205*%
X256258000Y-124800500D03*
X256258000Y-123075500D03*
%TD*%
D17*
%TO.C,C9*%
X175641000Y-100737500D03*
X175641000Y-102462500D03*
%TD*%
D16*
%TO.C,D203*%
X270242000Y-86191000D03*
X271992000Y-86191000D03*
X271992000Y-82691000D03*
X270242000Y-82691000D03*
%TD*%
D13*
%TO.C,C407*%
X148436500Y-78486000D03*
X146711500Y-78486000D03*
%TD*%
D19*
%TO.C,C201*%
X270381500Y-77964000D03*
X272106500Y-77964000D03*
%TD*%
D17*
%TO.C,C203*%
X256512000Y-92849500D03*
X256512000Y-94574500D03*
%TD*%
D19*
%TO.C,C506*%
X99213500Y-109246500D03*
X100938500Y-109246500D03*
%TD*%
D16*
%TO.C,D502*%
X69610000Y-86231500D03*
X71360000Y-86231500D03*
X71360000Y-82731500D03*
X69610000Y-82731500D03*
%TD*%
D18*
%TO.C,D309*%
X200829000Y-92851000D03*
X200829000Y-94601000D03*
X204329000Y-94601000D03*
X204329000Y-92851000D03*
%TD*%
D16*
%TO.C,D413*%
X146826000Y-104747000D03*
X148576000Y-104747000D03*
X148576000Y-101247000D03*
X146826000Y-101247000D03*
%TD*%
D18*
%TO.C,D5*%
X169065000Y-110250000D03*
X169065000Y-112000000D03*
X172565000Y-112000000D03*
X172565000Y-110250000D03*
%TD*%
D16*
%TO.C,D204*%
X270242000Y-73745000D03*
X271992000Y-73745000D03*
X271992000Y-70245000D03*
X270242000Y-70245000D03*
%TD*%
D17*
%TO.C,C303*%
X209056000Y-92863500D03*
X209056000Y-94588500D03*
%TD*%
D18*
%TO.C,D306*%
X213275000Y-92851000D03*
X213275000Y-94601000D03*
X216775000Y-94601000D03*
X216775000Y-92851000D03*
%TD*%
%TO.C,D410*%
X137315000Y-123204000D03*
X137315000Y-124954000D03*
X140815000Y-124954000D03*
X140815000Y-123204000D03*
%TD*%
%TO.C,D207*%
X264231000Y-64234000D03*
X264231000Y-62484000D03*
X260731000Y-62484000D03*
X260731000Y-64234000D03*
%TD*%
D16*
%TO.C,D503*%
X71360000Y-101273500D03*
X69610000Y-101273500D03*
X69610000Y-104773500D03*
X71360000Y-104773500D03*
%TD*%
D18*
%TO.C,D505*%
X77371000Y-62524500D03*
X77371000Y-64274500D03*
X80871000Y-64274500D03*
X80871000Y-62524500D03*
%TD*%
D13*
%TO.C,C206*%
X242388500Y-78218000D03*
X240663500Y-78218000D03*
%TD*%
D18*
%TO.C,D508*%
X89817000Y-62524500D03*
X89817000Y-64274500D03*
X93317000Y-64274500D03*
X93317000Y-62524500D03*
%TD*%
D19*
%TO.C,C307*%
X193207500Y-108966000D03*
X194932500Y-108966000D03*
%TD*%
D18*
%TO.C,D406*%
X128369000Y-94601000D03*
X128369000Y-92851000D03*
X124869000Y-92851000D03*
X124869000Y-94601000D03*
%TD*%
D16*
%TO.C,D304*%
X222786000Y-73759000D03*
X224536000Y-73759000D03*
X224536000Y-70259000D03*
X222786000Y-70259000D03*
%TD*%
D27*
%TO.C,D7*%
X164720000Y-91059000D03*
X168020000Y-91059000D03*
%TD*%
D16*
%TO.C,D313*%
X194818000Y-82705000D03*
X193068000Y-82705000D03*
X193068000Y-86205000D03*
X194818000Y-86205000D03*
%TD*%
D13*
%TO.C,C4*%
X181329500Y-91948000D03*
X179604500Y-91948000D03*
%TD*%
D18*
%TO.C,D310*%
X204329000Y-64248000D03*
X204329000Y-62498000D03*
X200829000Y-62498000D03*
X200829000Y-64248000D03*
%TD*%
D16*
%TO.C,D404*%
X118858000Y-113693000D03*
X117108000Y-113693000D03*
X117108000Y-117193000D03*
X118858000Y-117193000D03*
%TD*%
%TO.C,D412*%
X148576000Y-82705000D03*
X146826000Y-82705000D03*
X146826000Y-86205000D03*
X148576000Y-86205000D03*
%TD*%
%TO.C,D513*%
X99328000Y-104773500D03*
X101078000Y-104773500D03*
X101078000Y-101273500D03*
X99328000Y-101273500D03*
%TD*%
D14*
%TO.C,C403*%
X132588000Y-94588500D03*
X132588000Y-92863500D03*
%TD*%
D18*
%TO.C,D509*%
X93317000Y-94627500D03*
X93317000Y-92877500D03*
X89817000Y-92877500D03*
X89817000Y-94627500D03*
%TD*%
D16*
%TO.C,D514*%
X99328000Y-117219500D03*
X101078000Y-117219500D03*
X101078000Y-113719500D03*
X99328000Y-113719500D03*
%TD*%
D14*
%TO.C,C304*%
X209056000Y-64362500D03*
X209056000Y-62637500D03*
%TD*%
D16*
%TO.C,D402*%
X117108000Y-86205000D03*
X118858000Y-86205000D03*
X118858000Y-82705000D03*
X117108000Y-82705000D03*
%TD*%
D19*
%TO.C,C402*%
X117247500Y-78232000D03*
X118972500Y-78232000D03*
%TD*%
D16*
%TO.C,D202*%
X271992000Y-101233000D03*
X270242000Y-101233000D03*
X270242000Y-104733000D03*
X271992000Y-104733000D03*
%TD*%
D13*
%TO.C,C401*%
X118718500Y-109474000D03*
X116993500Y-109474000D03*
%TD*%
D16*
%TO.C,D2*%
X178195000Y-80109000D03*
X179945000Y-80109000D03*
X179945000Y-76609000D03*
X178195000Y-76609000D03*
%TD*%
D17*
%TO.C,C10*%
X175641000Y-110262500D03*
X175641000Y-111987500D03*
%TD*%
D18*
%TO.C,D405*%
X124869000Y-62498000D03*
X124869000Y-64248000D03*
X128369000Y-64248000D03*
X128369000Y-62498000D03*
%TD*%
D26*
%TO.C,R6*%
X181149000Y-86106000D03*
X179324000Y-86106000D03*
%TD*%
D16*
%TO.C,D212*%
X240524000Y-104733000D03*
X242274000Y-104733000D03*
X242274000Y-101233000D03*
X240524000Y-101233000D03*
%TD*%
D19*
%TO.C,C207*%
X240663500Y-108952000D03*
X242388500Y-108952000D03*
%TD*%
D16*
%TO.C,D504*%
X71360000Y-113719500D03*
X69610000Y-113719500D03*
X69610000Y-117219500D03*
X71360000Y-117219500D03*
%TD*%
D14*
%TO.C,C503*%
X85090000Y-94615000D03*
X85090000Y-92890000D03*
%TD*%
D10*
%TO.C,R3*%
X108966000Y-87352500D03*
X108966000Y-89177500D03*
%TD*%
M02*
