%TF.GenerationSoftware,KiCad,Pcbnew,7.0.1*%
%TF.CreationDate,2023-07-22T19:51:59+09:00*%
%TF.ProjectId,gaming-clock,67616d69-6e67-42d6-936c-6f636b2e6b69,rev?*%
%TF.SameCoordinates,Original*%
%TF.FileFunction,Profile,NP*%
%FSLAX46Y46*%
G04 Gerber Fmt 4.6, Leading zero omitted, Abs format (unit mm)*
G04 Created by KiCad (PCBNEW 7.0.1) date 2023-07-22 19:51:59*
%MOMM*%
%LPD*%
G01*
G04 APERTURE LIST*
%TA.AperFunction,Profile*%
%ADD10C,0.100000*%
%TD*%
G04 APERTURE END LIST*
D10*
X177800000Y-117602000D02*
X175260000Y-117602000D01*
X163830000Y-117602000D02*
X166370000Y-117602000D01*
X162687000Y-97790000D02*
X165481000Y-97790000D01*
X165481000Y-98933000D01*
X162687000Y-98933000D01*
X162687000Y-97790000D01*
X151257000Y-97790000D02*
X154051000Y-97790000D01*
X154051000Y-98933000D01*
X151257000Y-98933000D01*
X151257000Y-97790000D01*
X155067000Y-97790000D02*
X161671000Y-97790000D01*
X161671000Y-98933000D01*
X155067000Y-98933000D01*
X155067000Y-97790000D01*
X167640000Y-127508000D02*
X167640000Y-126492000D01*
X173990000Y-127508000D02*
X167640000Y-127508000D01*
X173990000Y-126492000D02*
X173990000Y-127508000D01*
X175260000Y-126492000D02*
X173990000Y-126492000D01*
X166370000Y-126492000D02*
X167640000Y-126492000D01*
X177800000Y-127508000D02*
X177800000Y-117602000D01*
X163830000Y-127508000D02*
X163830000Y-117602000D01*
X175260000Y-127508000D02*
X177800000Y-127508000D01*
X175260000Y-126492000D02*
X175260000Y-127508000D01*
X166370000Y-127508000D02*
X166370000Y-126492000D01*
X163830000Y-127508000D02*
X166370000Y-127508000D01*
X121412000Y-89662000D02*
X144272000Y-89662000D01*
X67056000Y-118618000D02*
X75946000Y-127508000D01*
X244856000Y-97790000D02*
X267716000Y-97790000D01*
X142240000Y-59944000D02*
X151130000Y-68834000D01*
X267716000Y-120650000D02*
X244856000Y-120650000D01*
X114554000Y-68834000D02*
X114554000Y-73025000D01*
X157734000Y-118618000D02*
X157734000Y-112776000D01*
X69596000Y-97155000D02*
X67056000Y-97282000D01*
X272161000Y-90297000D02*
G75*
G03*
X272161000Y-97155000I0J-3429000D01*
G01*
X220218000Y-120650000D02*
X197358000Y-120650000D01*
X73914000Y-66802000D02*
X73914000Y-89662000D01*
X197358000Y-97790000D02*
X220218000Y-97790000D01*
X151130000Y-70358000D02*
X190500000Y-70358000D01*
X267716000Y-89662000D02*
X244856000Y-89662000D01*
X244856000Y-120650000D02*
X244856000Y-97790000D01*
X121412000Y-97790000D02*
X121412000Y-120650000D01*
X197358000Y-89662000D02*
X197358000Y-66802000D01*
X235966000Y-74676000D02*
G75*
G03*
X235966000Y-74676000I-3429000J0D01*
G01*
X144272000Y-66802000D02*
X121412000Y-66802000D01*
X218186000Y-59944000D02*
X199390000Y-59944000D01*
X237998000Y-68834000D02*
X246888000Y-59944000D01*
X103632000Y-68834000D02*
X103632000Y-73025000D01*
X220218000Y-66802000D02*
X220218000Y-89662000D01*
X246888000Y-127508000D02*
X237998000Y-118618000D01*
X267716000Y-66802000D02*
X267716000Y-89662000D01*
X94742000Y-59944000D02*
X75946000Y-59944000D01*
X267716000Y-97790000D02*
X267716000Y-120650000D01*
X123444000Y-127508000D02*
X114554000Y-118618000D01*
X227076000Y-68834000D02*
X218186000Y-59944000D01*
X69596000Y-90297000D02*
X67056000Y-90170000D01*
X142240000Y-127508000D02*
X123444000Y-127508000D01*
X272161000Y-90297000D02*
X274574000Y-90170000D01*
X114554000Y-118618000D02*
X103632000Y-118618000D01*
X183896000Y-118618000D02*
X183896000Y-112776000D01*
X218186000Y-127508000D02*
X227076000Y-118618000D01*
X190500000Y-118618000D02*
X199390000Y-127508000D01*
X103632000Y-73025000D02*
X114554000Y-73025000D01*
X75946000Y-59944000D02*
X67056000Y-68834000D01*
X244856000Y-89662000D02*
X244856000Y-66802000D01*
X199390000Y-59944000D02*
X190500000Y-68834000D01*
X112522000Y-112776000D02*
G75*
G03*
X112522000Y-112776000I-3429000J0D01*
G01*
X190500000Y-68834000D02*
X190500000Y-70358000D01*
X183896000Y-112776000D02*
X175260000Y-112776000D01*
X67056000Y-68834000D02*
X67056000Y-90170000D01*
X274574000Y-68834000D02*
X274574000Y-90170000D01*
X151130000Y-118618000D02*
X142240000Y-127508000D01*
X151130000Y-68834000D02*
X151130000Y-70358000D01*
X69596000Y-97155000D02*
G75*
G03*
X69596000Y-90297000I0J3429000D01*
G01*
X244856000Y-66802000D02*
X267716000Y-66802000D01*
X96774000Y-66802000D02*
X73914000Y-66802000D01*
X94742000Y-127508000D02*
X103632000Y-118618000D01*
X121412000Y-66802000D02*
X121412000Y-89662000D01*
X274574000Y-118618000D02*
X265684000Y-127508000D01*
X144272000Y-89662000D02*
X144272000Y-66802000D01*
X96774000Y-120650000D02*
X96774000Y-97790000D01*
X175260000Y-112776000D02*
X175260000Y-117602000D01*
X157734000Y-112776000D02*
X166370000Y-112776000D01*
X157734000Y-118618000D02*
X151130000Y-118618000D01*
X123444000Y-59944000D02*
X142240000Y-59944000D01*
X197358000Y-120650000D02*
X197358000Y-97790000D01*
X235966000Y-112776000D02*
G75*
G03*
X235966000Y-112776000I-3429000J0D01*
G01*
X246888000Y-59944000D02*
X265684000Y-59944000D01*
X272161000Y-97155000D02*
X274574000Y-97282000D01*
X220218000Y-97790000D02*
X220218000Y-120650000D01*
X112522000Y-81788000D02*
G75*
G03*
X112522000Y-81788000I-3429000J0D01*
G01*
X114554000Y-68834000D02*
X123444000Y-59944000D01*
X199390000Y-127508000D02*
X218186000Y-127508000D01*
X96774000Y-89662000D02*
X96774000Y-66802000D01*
X166370000Y-112776000D02*
X166370000Y-117602000D01*
X227076000Y-118618000D02*
X237998000Y-118618000D01*
X220218000Y-89662000D02*
X197358000Y-89662000D01*
X103632000Y-68834000D02*
X94742000Y-59944000D01*
X265684000Y-59944000D02*
X274574000Y-68834000D01*
X73914000Y-120650000D02*
X96774000Y-120650000D01*
X73914000Y-89662000D02*
X96774000Y-89662000D01*
X96774000Y-97790000D02*
X73914000Y-97790000D01*
X190500000Y-118618000D02*
X183896000Y-118618000D01*
X121412000Y-120650000D02*
X144272000Y-120650000D01*
X67056000Y-97282000D02*
X67056000Y-118618000D01*
X75946000Y-127508000D02*
X94742000Y-127508000D01*
X144272000Y-120650000D02*
X144272000Y-97790000D01*
X144272000Y-97790000D02*
X121412000Y-97790000D01*
X73914000Y-97790000D02*
X73914000Y-120650000D01*
X227076000Y-68834000D02*
X237998000Y-68834000D01*
X265684000Y-127508000D02*
X246888000Y-127508000D01*
X274574000Y-97282000D02*
X274574000Y-118618000D01*
X197358000Y-66802000D02*
X220218000Y-66802000D01*
M02*
