%TF.GenerationSoftware,KiCad,Pcbnew,7.0.1*%
%TF.CreationDate,2023-07-22T19:51:59+09:00*%
%TF.ProjectId,gaming-clock,67616d69-6e67-42d6-936c-6f636b2e6b69,rev?*%
%TF.SameCoordinates,Original*%
%TF.FileFunction,Legend,Bot*%
%TF.FilePolarity,Positive*%
%FSLAX46Y46*%
G04 Gerber Fmt 4.6, Leading zero omitted, Abs format (unit mm)*
G04 Created by KiCad (PCBNEW 7.0.1) date 2023-07-22 19:51:59*
%MOMM*%
%LPD*%
G01*
G04 APERTURE LIST*
%ADD10C,0.150000*%
%ADD11C,0.120000*%
G04 APERTURE END LIST*
D10*
X168402000Y-96774000D02*
G75*
G03*
X168402000Y-96774000I-10033000J0D01*
G01*
X171450000Y-96774000D02*
G75*
G03*
X171450000Y-96774000I-13081000J0D01*
G01*
%TO.C,LS101*%
X180324238Y-98067619D02*
X180800428Y-98067619D01*
X180800428Y-98067619D02*
X180800428Y-97067619D01*
X180038523Y-98020000D02*
X179895666Y-98067619D01*
X179895666Y-98067619D02*
X179657571Y-98067619D01*
X179657571Y-98067619D02*
X179562333Y-98020000D01*
X179562333Y-98020000D02*
X179514714Y-97972380D01*
X179514714Y-97972380D02*
X179467095Y-97877142D01*
X179467095Y-97877142D02*
X179467095Y-97781904D01*
X179467095Y-97781904D02*
X179514714Y-97686666D01*
X179514714Y-97686666D02*
X179562333Y-97639047D01*
X179562333Y-97639047D02*
X179657571Y-97591428D01*
X179657571Y-97591428D02*
X179848047Y-97543809D01*
X179848047Y-97543809D02*
X179943285Y-97496190D01*
X179943285Y-97496190D02*
X179990904Y-97448571D01*
X179990904Y-97448571D02*
X180038523Y-97353333D01*
X180038523Y-97353333D02*
X180038523Y-97258095D01*
X180038523Y-97258095D02*
X179990904Y-97162857D01*
X179990904Y-97162857D02*
X179943285Y-97115238D01*
X179943285Y-97115238D02*
X179848047Y-97067619D01*
X179848047Y-97067619D02*
X179609952Y-97067619D01*
X179609952Y-97067619D02*
X179467095Y-97115238D01*
X178514714Y-98067619D02*
X179086142Y-98067619D01*
X178800428Y-98067619D02*
X178800428Y-97067619D01*
X178800428Y-97067619D02*
X178895666Y-97210476D01*
X178895666Y-97210476D02*
X178990904Y-97305714D01*
X178990904Y-97305714D02*
X179086142Y-97353333D01*
X177895666Y-97067619D02*
X177800428Y-97067619D01*
X177800428Y-97067619D02*
X177705190Y-97115238D01*
X177705190Y-97115238D02*
X177657571Y-97162857D01*
X177657571Y-97162857D02*
X177609952Y-97258095D01*
X177609952Y-97258095D02*
X177562333Y-97448571D01*
X177562333Y-97448571D02*
X177562333Y-97686666D01*
X177562333Y-97686666D02*
X177609952Y-97877142D01*
X177609952Y-97877142D02*
X177657571Y-97972380D01*
X177657571Y-97972380D02*
X177705190Y-98020000D01*
X177705190Y-98020000D02*
X177800428Y-98067619D01*
X177800428Y-98067619D02*
X177895666Y-98067619D01*
X177895666Y-98067619D02*
X177990904Y-98020000D01*
X177990904Y-98020000D02*
X178038523Y-97972380D01*
X178038523Y-97972380D02*
X178086142Y-97877142D01*
X178086142Y-97877142D02*
X178133761Y-97686666D01*
X178133761Y-97686666D02*
X178133761Y-97448571D01*
X178133761Y-97448571D02*
X178086142Y-97258095D01*
X178086142Y-97258095D02*
X178038523Y-97162857D01*
X178038523Y-97162857D02*
X177990904Y-97115238D01*
X177990904Y-97115238D02*
X177895666Y-97067619D01*
X176609952Y-98067619D02*
X177181380Y-98067619D01*
X176895666Y-98067619D02*
X176895666Y-97067619D01*
X176895666Y-97067619D02*
X176990904Y-97210476D01*
X176990904Y-97210476D02*
X177086142Y-97305714D01*
X177086142Y-97305714D02*
X177181380Y-97353333D01*
%TO.C,J2*%
X175593333Y-92553619D02*
X175593333Y-93267904D01*
X175593333Y-93267904D02*
X175640952Y-93410761D01*
X175640952Y-93410761D02*
X175736190Y-93506000D01*
X175736190Y-93506000D02*
X175879047Y-93553619D01*
X175879047Y-93553619D02*
X175974285Y-93553619D01*
X175164761Y-92648857D02*
X175117142Y-92601238D01*
X175117142Y-92601238D02*
X175021904Y-92553619D01*
X175021904Y-92553619D02*
X174783809Y-92553619D01*
X174783809Y-92553619D02*
X174688571Y-92601238D01*
X174688571Y-92601238D02*
X174640952Y-92648857D01*
X174640952Y-92648857D02*
X174593333Y-92744095D01*
X174593333Y-92744095D02*
X174593333Y-92839333D01*
X174593333Y-92839333D02*
X174640952Y-92982190D01*
X174640952Y-92982190D02*
X175212380Y-93553619D01*
X175212380Y-93553619D02*
X174593333Y-93553619D01*
%TO.C,U1*%
X189774619Y-79756095D02*
X190584142Y-79756095D01*
X190584142Y-79756095D02*
X190679380Y-79803714D01*
X190679380Y-79803714D02*
X190727000Y-79851333D01*
X190727000Y-79851333D02*
X190774619Y-79946571D01*
X190774619Y-79946571D02*
X190774619Y-80137047D01*
X190774619Y-80137047D02*
X190727000Y-80232285D01*
X190727000Y-80232285D02*
X190679380Y-80279904D01*
X190679380Y-80279904D02*
X190584142Y-80327523D01*
X190584142Y-80327523D02*
X189774619Y-80327523D01*
X190774619Y-81327523D02*
X190774619Y-80756095D01*
X190774619Y-81041809D02*
X189774619Y-81041809D01*
X189774619Y-81041809D02*
X189917476Y-80946571D01*
X189917476Y-80946571D02*
X190012714Y-80851333D01*
X190012714Y-80851333D02*
X190060333Y-80756095D01*
X186138904Y-75756094D02*
X186138904Y-76232284D01*
X186424619Y-75660856D02*
X185424619Y-75994189D01*
X185424619Y-75994189D02*
X186424619Y-76327522D01*
X185757952Y-76660856D02*
X186424619Y-76660856D01*
X185853190Y-76660856D02*
X185805571Y-76708475D01*
X185805571Y-76708475D02*
X185757952Y-76803713D01*
X185757952Y-76803713D02*
X185757952Y-76946570D01*
X185757952Y-76946570D02*
X185805571Y-77041808D01*
X185805571Y-77041808D02*
X185900809Y-77089427D01*
X185900809Y-77089427D02*
X186424619Y-77089427D01*
X185757952Y-77422761D02*
X185757952Y-77803713D01*
X185424619Y-77565618D02*
X186281761Y-77565618D01*
X186281761Y-77565618D02*
X186377000Y-77613237D01*
X186377000Y-77613237D02*
X186424619Y-77708475D01*
X186424619Y-77708475D02*
X186424619Y-77803713D01*
X186377000Y-78517999D02*
X186424619Y-78422761D01*
X186424619Y-78422761D02*
X186424619Y-78232285D01*
X186424619Y-78232285D02*
X186377000Y-78137047D01*
X186377000Y-78137047D02*
X186281761Y-78089428D01*
X186281761Y-78089428D02*
X185900809Y-78089428D01*
X185900809Y-78089428D02*
X185805571Y-78137047D01*
X185805571Y-78137047D02*
X185757952Y-78232285D01*
X185757952Y-78232285D02*
X185757952Y-78422761D01*
X185757952Y-78422761D02*
X185805571Y-78517999D01*
X185805571Y-78517999D02*
X185900809Y-78565618D01*
X185900809Y-78565618D02*
X185996047Y-78565618D01*
X185996047Y-78565618D02*
X186091285Y-78089428D01*
X185757952Y-78994190D02*
X186424619Y-78994190D01*
X185853190Y-78994190D02*
X185805571Y-79041809D01*
X185805571Y-79041809D02*
X185757952Y-79137047D01*
X185757952Y-79137047D02*
X185757952Y-79279904D01*
X185757952Y-79279904D02*
X185805571Y-79375142D01*
X185805571Y-79375142D02*
X185900809Y-79422761D01*
X185900809Y-79422761D02*
X186424619Y-79422761D01*
X185757952Y-79898952D02*
X186424619Y-79898952D01*
X185853190Y-79898952D02*
X185805571Y-79946571D01*
X185805571Y-79946571D02*
X185757952Y-80041809D01*
X185757952Y-80041809D02*
X185757952Y-80184666D01*
X185757952Y-80184666D02*
X185805571Y-80279904D01*
X185805571Y-80279904D02*
X185900809Y-80327523D01*
X185900809Y-80327523D02*
X186424619Y-80327523D01*
X186424619Y-81232285D02*
X185900809Y-81232285D01*
X185900809Y-81232285D02*
X185805571Y-81184666D01*
X185805571Y-81184666D02*
X185757952Y-81089428D01*
X185757952Y-81089428D02*
X185757952Y-80898952D01*
X185757952Y-80898952D02*
X185805571Y-80803714D01*
X186377000Y-81232285D02*
X186424619Y-81137047D01*
X186424619Y-81137047D02*
X186424619Y-80898952D01*
X186424619Y-80898952D02*
X186377000Y-80803714D01*
X186377000Y-80803714D02*
X186281761Y-80756095D01*
X186281761Y-80756095D02*
X186186523Y-80756095D01*
X186186523Y-80756095D02*
X186091285Y-80803714D01*
X186091285Y-80803714D02*
X186043666Y-80898952D01*
X186043666Y-80898952D02*
X186043666Y-81137047D01*
X186043666Y-81137047D02*
X185996047Y-81232285D01*
X186138904Y-82422762D02*
X186138904Y-82898952D01*
X186424619Y-82327524D02*
X185424619Y-82660857D01*
X185424619Y-82660857D02*
X186424619Y-82994190D01*
X186424619Y-83327524D02*
X185757952Y-83327524D01*
X185948428Y-83327524D02*
X185853190Y-83375143D01*
X185853190Y-83375143D02*
X185805571Y-83422762D01*
X185805571Y-83422762D02*
X185757952Y-83518000D01*
X185757952Y-83518000D02*
X185757952Y-83613238D01*
X186377000Y-84327524D02*
X186424619Y-84232286D01*
X186424619Y-84232286D02*
X186424619Y-84041810D01*
X186424619Y-84041810D02*
X186377000Y-83946572D01*
X186377000Y-83946572D02*
X186281761Y-83898953D01*
X186281761Y-83898953D02*
X185900809Y-83898953D01*
X185900809Y-83898953D02*
X185805571Y-83946572D01*
X185805571Y-83946572D02*
X185757952Y-84041810D01*
X185757952Y-84041810D02*
X185757952Y-84232286D01*
X185757952Y-84232286D02*
X185805571Y-84327524D01*
X185805571Y-84327524D02*
X185900809Y-84375143D01*
X185900809Y-84375143D02*
X185996047Y-84375143D01*
X185996047Y-84375143D02*
X186091285Y-83898953D01*
X186424619Y-85232286D02*
X185900809Y-85232286D01*
X185900809Y-85232286D02*
X185805571Y-85184667D01*
X185805571Y-85184667D02*
X185757952Y-85089429D01*
X185757952Y-85089429D02*
X185757952Y-84898953D01*
X185757952Y-84898953D02*
X185805571Y-84803715D01*
X186377000Y-85232286D02*
X186424619Y-85137048D01*
X186424619Y-85137048D02*
X186424619Y-84898953D01*
X186424619Y-84898953D02*
X186377000Y-84803715D01*
X186377000Y-84803715D02*
X186281761Y-84756096D01*
X186281761Y-84756096D02*
X186186523Y-84756096D01*
X186186523Y-84756096D02*
X186091285Y-84803715D01*
X186091285Y-84803715D02*
X186043666Y-84898953D01*
X186043666Y-84898953D02*
X186043666Y-85137048D01*
X186043666Y-85137048D02*
X185996047Y-85232286D01*
D11*
%TO.C,LS101*%
X185129000Y-106274999D02*
G75*
G03*
X185129000Y-103275000I-6400000J1499999D01*
G01*
X184959000Y-104775000D02*
G75*
G03*
X184959000Y-104775000I-6230000J0D01*
G01*
%TO.C,J2*%
X183739500Y-90776000D02*
X172839500Y-90776000D01*
X172839500Y-90776000D02*
X172839500Y-95776000D01*
X172839500Y-95776000D02*
X183739500Y-95776000D01*
X183739500Y-95776000D02*
X183739500Y-90776000D01*
%TO.C,U1*%
X168562000Y-89518000D02*
X168812000Y-89518000D01*
X188562000Y-89518000D02*
X182062000Y-89518000D01*
X188562000Y-89518000D02*
X188562000Y-71518000D01*
X168562000Y-71518000D02*
X168562000Y-89518000D01*
X168812000Y-71518000D02*
X168562000Y-71518000D01*
X182562000Y-71518000D02*
X182562000Y-89468000D01*
X188562000Y-71518000D02*
X182062000Y-71518000D01*
%TD*%
M02*
